<?xml version="1.0" encoding="UTF-8"?>
<svg xmlns="http://www.w3.org/2000/svg">
 <g>
  <text x="10.0" y="162.0" title="India" style="fill:black;font-family:Helvetica;font-size:18.7px;font-weight:bold;">India</text>
  <text x="151.0" y="129.0" transform="matrix(6.123233995736766E-17,-1.0,1.0,6.123233995736766E-17,22.0,280.0)" title="Myrcene" style="fill:black;font-family:Helvetica;font-size:18.7px;font-weight:bold;">Myrcene</text>
  <g>
   <rect x="140.0" y="140.0" width="22.0" height="22.0" style="fill:#000;"/>
   <text x="140.0" y="162.0" style="fill:black;font-family:Helvetica;font-size:18.7px;stroke:yellow;stroke-width:0.8;">1</text>
  </g>
  <text x="173.0" y="129.0" transform="matrix(6.123233995736766E-17,-1.0,1.0,6.123233995736766E-17,44.0,302.0)" title="Ocimene" style="fill:black;font-family:Helvetica;font-size:18.7px;font-weight:bold;">Ocimene</text>
  <g>
   <rect x="162.0" y="140.0" width="22.0" height="22.0" style="fill:#000;"/>
   <text x="162.0" y="162.0" style="fill:black;font-family:Helvetica;font-size:18.7px;stroke:yellow;stroke-width:0.8;">1</text>
  </g>
  <text x="195.0" y="129.0" transform="matrix(6.123233995736766E-17,-1.0,1.0,6.123233995736766E-17,66.0,324.0)" title="Geraniol" style="fill:black;font-family:Helvetica;font-size:18.7px;font-weight:bold;">Geraniol</text>
  <g>
   <rect x="184.0" y="140.0" width="22.0" height="22.0" style="fill:#000;"/>
   <text x="184.0" y="162.0" style="fill:black;font-family:Helvetica;font-size:18.7px;stroke:yellow;stroke-width:0.8;">1</text>
  </g>
  <text x="10.0" y="184.0" title="Sri Lanka" style="fill:black;font-family:Helvetica;font-size:18.7px;font-weight:bold;">Sri Lanka</text>
  <g>
   <rect x="140.0" y="162.0" width="22.0" height="22.0" style="fill:#ffffff;"/>
   <text x="140.0" y="184.0" style="fill:black;font-family:Helvetica;font-size:18.7px;stroke:yellow;stroke-width:0.8;">0</text>
  </g>
  <g>
   <rect x="162.0" y="162.0" width="22.0" height="22.0" style="fill:#ffffff;"/>
   <text x="162.0" y="184.0" style="fill:black;font-family:Helvetica;font-size:18.7px;stroke:yellow;stroke-width:0.8;">0</text>
  </g>
  <g>
   <rect x="184.0" y="162.0" width="22.0" height="22.0" style="fill:#ffffff;"/>
   <text x="184.0" y="184.0" style="fill:black;font-family:Helvetica;font-size:18.7px;stroke:yellow;stroke-width:0.8;">0</text>
  </g>
  <text x="10.0" y="206.0" title="Sri Lanka," style="fill:black;font-family:Helvetica;font-size:18.7px;font-weight:bold;">Sri Lanka,</text>
  <g>
   <rect x="140.0" y="184.0" width="22.0" height="22.0" style="fill:#ffffff;"/>
   <text x="140.0" y="206.0" style="fill:black;font-family:Helvetica;font-size:18.7px;stroke:yellow;stroke-width:0.8;">0</text>
  </g>
  <g>
   <rect x="162.0" y="184.0" width="22.0" height="22.0" style="fill:#ffffff;"/>
   <text x="162.0" y="206.0" style="fill:black;font-family:Helvetica;font-size:18.7px;stroke:yellow;stroke-width:0.8;">0</text>
  </g>
  <g>
   <rect x="184.0" y="184.0" width="22.0" height="22.0" style="fill:#ffffff;"/>
   <text x="184.0" y="206.0" style="fill:black;font-family:Helvetica;font-size:18.7px;stroke:yellow;stroke-width:0.8;">0</text>
  </g>
  <text x="10.0" y="228.0" title="Saudi Arabia" style="fill:black;font-family:Helvetica;font-size:18.7px;font-weight:bold;">Saudi Arabia</text>
  <g>
   <rect x="140.0" y="206.0" width="22.0" height="22.0" style="fill:#ffffff;"/>
   <text x="140.0" y="228.0" style="fill:black;font-family:Helvetica;font-size:18.7px;stroke:yellow;stroke-width:0.8;">0</text>
  </g>
  <g>
   <rect x="162.0" y="206.0" width="22.0" height="22.0" style="fill:#ffffff;"/>
   <text x="162.0" y="228.0" style="fill:black;font-family:Helvetica;font-size:18.7px;stroke:yellow;stroke-width:0.8;">0</text>
  </g>
  <g>
   <rect x="184.0" y="206.0" width="22.0" height="22.0" style="fill:#ffffff;"/>
   <text x="184.0" y="228.0" style="fill:black;font-family:Helvetica;font-size:18.7px;stroke:yellow;stroke-width:0.8;">0</text>
  </g>
  <text x="10.0" y="250.0" title="China" style="fill:black;font-family:Helvetica;font-size:18.7px;font-weight:bold;">China</text>
  <g>
   <rect x="140.0" y="228.0" width="22.0" height="22.0" style="fill:#ffffff;"/>
   <text x="140.0" y="250.0" style="fill:black;font-family:Helvetica;font-size:18.7px;stroke:yellow;stroke-width:0.8;">0</text>
  </g>
  <g>
   <rect x="162.0" y="228.0" width="22.0" height="22.0" style="fill:#ffffff;"/>
   <text x="162.0" y="250.0" style="fill:black;font-family:Helvetica;font-size:18.7px;stroke:yellow;stroke-width:0.8;">0</text>
  </g>
  <g>
   <rect x="184.0" y="228.0" width="22.0" height="22.0" style="fill:#ffffff;"/>
   <text x="184.0" y="250.0" style="fill:black;font-family:Helvetica;font-size:18.7px;stroke:yellow;stroke-width:0.8;">0</text>
  </g>
  <text x="10.0" y="272.0" title="Thailand" style="fill:black;font-family:Helvetica;font-size:18.7px;font-weight:bold;">Thailand</text>
  <g>
   <rect x="140.0" y="250.0" width="22.0" height="22.0" style="fill:#ffffff;"/>
   <text x="140.0" y="272.0" style="fill:black;font-family:Helvetica;font-size:18.7px;stroke:yellow;stroke-width:0.8;">0</text>
  </g>
  <g>
   <rect x="162.0" y="250.0" width="22.0" height="22.0" style="fill:#ffffff;"/>
   <text x="162.0" y="272.0" style="fill:black;font-family:Helvetica;font-size:18.7px;stroke:yellow;stroke-width:0.8;">0</text>
  </g>
  <g>
   <rect x="184.0" y="250.0" width="22.0" height="22.0" style="fill:#ffffff;"/>
   <text x="184.0" y="272.0" style="fill:black;font-family:Helvetica;font-size:18.7px;stroke:yellow;stroke-width:0.8;">0</text>
  </g>
  <text x="10.0" y="294.0" title="Brazil" style="fill:black;font-family:Helvetica;font-size:18.7px;font-weight:bold;">Brazil</text>
  <g>
   <rect x="140.0" y="272.0" width="22.0" height="22.0" style="fill:#ffffff;"/>
   <text x="140.0" y="294.0" style="fill:black;font-family:Helvetica;font-size:18.7px;stroke:yellow;stroke-width:0.8;">0</text>
  </g>
  <g>
   <rect x="162.0" y="272.0" width="22.0" height="22.0" style="fill:#ffffff;"/>
   <text x="162.0" y="294.0" style="fill:black;font-family:Helvetica;font-size:18.7px;stroke:yellow;stroke-width:0.8;">0</text>
  </g>
  <g>
   <rect x="184.0" y="272.0" width="22.0" height="22.0" style="fill:#ffffff;"/>
   <text x="184.0" y="294.0" style="fill:black;font-family:Helvetica;font-size:18.7px;stroke:yellow;stroke-width:0.8;">0</text>
  </g>
  <text x="10.0" y="316.0" title="United Kingdom" style="fill:black;font-family:Helvetica;font-size:18.7px;font-weight:bold;">United Kingdom</text>
  <g>
   <rect x="140.0" y="294.0" width="22.0" height="22.0" style="fill:#ffffff;"/>
   <text x="140.0" y="316.0" style="fill:black;font-family:Helvetica;font-size:18.7px;stroke:yellow;stroke-width:0.8;">0</text>
  </g>
  <g>
   <rect x="162.0" y="294.0" width="22.0" height="22.0" style="fill:#ffffff;"/>
   <text x="162.0" y="316.0" style="fill:black;font-family:Helvetica;font-size:18.7px;stroke:yellow;stroke-width:0.8;">0</text>
  </g>
  <g>
   <rect x="184.0" y="294.0" width="22.0" height="22.0" style="fill:#ffffff;"/>
   <text x="184.0" y="316.0" style="fill:black;font-family:Helvetica;font-size:18.7px;stroke:yellow;stroke-width:0.8;">0</text>
  </g>
  <text x="10.0" y="338.0" title="Saudi Arabia." style="fill:black;font-family:Helvetica;font-size:18.7px;font-weight:bold;">Saudi Arabia.</text>
  <g>
   <rect x="140.0" y="316.0" width="22.0" height="22.0" style="fill:#ffffff;"/>
   <text x="140.0" y="338.0" style="fill:black;font-family:Helvetica;font-size:18.7px;stroke:yellow;stroke-width:0.8;">0</text>
  </g>
  <g>
   <rect x="162.0" y="316.0" width="22.0" height="22.0" style="fill:#ffffff;"/>
   <text x="162.0" y="338.0" style="fill:black;font-family:Helvetica;font-size:18.7px;stroke:yellow;stroke-width:0.8;">0</text>
  </g>
  <g>
   <rect x="184.0" y="316.0" width="22.0" height="22.0" style="fill:#ffffff;"/>
   <text x="184.0" y="338.0" style="fill:black;font-family:Helvetica;font-size:18.7px;stroke:yellow;stroke-width:0.8;">0</text>
  </g>
  <text x="10.0" y="360.0" title="Bangladesh" style="fill:black;font-family:Helvetica;font-size:18.7px;font-weight:bold;">Bangladesh</text>
  <g>
   <rect x="140.0" y="338.0" width="22.0" height="22.0" style="fill:#ffffff;"/>
   <text x="140.0" y="360.0" style="fill:black;font-family:Helvetica;font-size:18.7px;stroke:yellow;stroke-width:0.8;">0</text>
  </g>
  <g>
   <rect x="162.0" y="338.0" width="22.0" height="22.0" style="fill:#ffffff;"/>
   <text x="162.0" y="360.0" style="fill:black;font-family:Helvetica;font-size:18.7px;stroke:yellow;stroke-width:0.8;">0</text>
  </g>
  <g>
   <rect x="184.0" y="338.0" width="22.0" height="22.0" style="fill:#ffffff;"/>
   <text x="184.0" y="360.0" style="fill:black;font-family:Helvetica;font-size:18.7px;stroke:yellow;stroke-width:0.8;">0</text>
  </g>
  <text x="10.0" y="382.0" title="Sri Lanka." style="fill:black;font-family:Helvetica;font-size:18.7px;font-weight:bold;">Sri Lanka.</text>
  <g>
   <rect x="140.0" y="360.0" width="22.0" height="22.0" style="fill:#ffffff;"/>
   <text x="140.0" y="382.0" style="fill:black;font-family:Helvetica;font-size:18.7px;stroke:yellow;stroke-width:0.8;">0</text>
  </g>
  <g>
   <rect x="162.0" y="360.0" width="22.0" height="22.0" style="fill:#ffffff;"/>
   <text x="162.0" y="382.0" style="fill:black;font-family:Helvetica;font-size:18.7px;stroke:yellow;stroke-width:0.8;">0</text>
  </g>
  <g>
   <rect x="184.0" y="360.0" width="22.0" height="22.0" style="fill:#ffffff;"/>
   <text x="184.0" y="382.0" style="fill:black;font-family:Helvetica;font-size:18.7px;stroke:yellow;stroke-width:0.8;">0</text>
  </g>
  <text x="10.0" y="404.0" title="Germany" style="fill:black;font-family:Helvetica;font-size:18.7px;font-weight:bold;">Germany</text>
  <g>
   <rect x="140.0" y="382.0" width="22.0" height="22.0" style="fill:#ffffff;"/>
   <text x="140.0" y="404.0" style="fill:black;font-family:Helvetica;font-size:18.7px;stroke:yellow;stroke-width:0.8;">0</text>
  </g>
  <g>
   <rect x="162.0" y="382.0" width="22.0" height="22.0" style="fill:#ffffff;"/>
   <text x="162.0" y="404.0" style="fill:black;font-family:Helvetica;font-size:18.7px;stroke:yellow;stroke-width:0.8;">0</text>
  </g>
  <g>
   <rect x="184.0" y="382.0" width="22.0" height="22.0" style="fill:#ffffff;"/>
   <text x="184.0" y="404.0" style="fill:black;font-family:Helvetica;font-size:18.7px;stroke:yellow;stroke-width:0.8;">0</text>
  </g>
  <text x="10.0" y="426.0" title="Sri Lanka?" style="fill:black;font-family:Helvetica;font-size:18.7px;font-weight:bold;">Sri Lanka?</text>
  <g>
   <rect x="140.0" y="404.0" width="22.0" height="22.0" style="fill:#ffffff;"/>
   <text x="140.0" y="426.0" style="fill:black;font-family:Helvetica;font-size:18.7px;stroke:yellow;stroke-width:0.8;">0</text>
  </g>
  <g>
   <rect x="162.0" y="404.0" width="22.0" height="22.0" style="fill:#ffffff;"/>
   <text x="162.0" y="426.0" style="fill:black;font-family:Helvetica;font-size:18.7px;stroke:yellow;stroke-width:0.8;">0</text>
  </g>
  <g>
   <rect x="184.0" y="404.0" width="22.0" height="22.0" style="fill:#ffffff;"/>
   <text x="184.0" y="426.0" style="fill:black;font-family:Helvetica;font-size:18.7px;stroke:yellow;stroke-width:0.8;">0</text>
  </g>
  <text x="10.0" y="448.0" title="Egypt" style="fill:black;font-family:Helvetica;font-size:18.7px;font-weight:bold;">Egypt</text>
  <g>
   <rect x="140.0" y="426.0" width="22.0" height="22.0" style="fill:#ffffff;"/>
   <text x="140.0" y="448.0" style="fill:black;font-family:Helvetica;font-size:18.7px;stroke:yellow;stroke-width:0.8;">0</text>
  </g>
  <g>
   <rect x="162.0" y="426.0" width="22.0" height="22.0" style="fill:#ffffff;"/>
   <text x="162.0" y="448.0" style="fill:black;font-family:Helvetica;font-size:18.7px;stroke:yellow;stroke-width:0.8;">0</text>
  </g>
  <g>
   <rect x="184.0" y="426.0" width="22.0" height="22.0" style="fill:#ffffff;"/>
   <text x="184.0" y="448.0" style="fill:black;font-family:Helvetica;font-size:18.7px;stroke:yellow;stroke-width:0.8;">0</text>
  </g>
  <text x="10.0" y="470.0" title="United States;" style="fill:black;font-family:Helvetica;font-size:18.7px;font-weight:bold;">United States;</text>
  <g>
   <rect x="140.0" y="448.0" width="22.0" height="22.0" style="fill:#ffffff;"/>
   <text x="140.0" y="470.0" style="fill:black;font-family:Helvetica;font-size:18.7px;stroke:yellow;stroke-width:0.8;">0</text>
  </g>
  <g>
   <rect x="162.0" y="448.0" width="22.0" height="22.0" style="fill:#ffffff;"/>
   <text x="162.0" y="470.0" style="fill:black;font-family:Helvetica;font-size:18.7px;stroke:yellow;stroke-width:0.8;">0</text>
  </g>
  <g>
   <rect x="184.0" y="448.0" width="22.0" height="22.0" style="fill:#ffffff;"/>
   <text x="184.0" y="470.0" style="fill:black;font-family:Helvetica;font-size:18.7px;stroke:yellow;stroke-width:0.8;">0</text>
  </g>
  <text x="10.0" y="492.0" title="Netherlands" style="fill:black;font-family:Helvetica;font-size:18.7px;font-weight:bold;">Netherlands</text>
  <g>
   <rect x="140.0" y="470.0" width="22.0" height="22.0" style="fill:#ffffff;"/>
   <text x="140.0" y="492.0" style="fill:black;font-family:Helvetica;font-size:18.7px;stroke:yellow;stroke-width:0.8;">0</text>
  </g>
  <g>
   <rect x="162.0" y="470.0" width="22.0" height="22.0" style="fill:#ffffff;"/>
   <text x="162.0" y="492.0" style="fill:black;font-family:Helvetica;font-size:18.7px;stroke:yellow;stroke-width:0.8;">0</text>
  </g>
  <g>
   <rect x="184.0" y="470.0" width="22.0" height="22.0" style="fill:#ffffff;"/>
   <text x="184.0" y="492.0" style="fill:black;font-family:Helvetica;font-size:18.7px;stroke:yellow;stroke-width:0.8;">0</text>
  </g>
  <text x="10.0" y="514.0" title="Guyana" style="fill:black;font-family:Helvetica;font-size:18.7px;font-weight:bold;">Guyana</text>
  <g>
   <rect x="140.0" y="492.0" width="22.0" height="22.0" style="fill:#ffffff;"/>
   <text x="140.0" y="514.0" style="fill:black;font-family:Helvetica;font-size:18.7px;stroke:yellow;stroke-width:0.8;">0</text>
  </g>
  <g>
   <rect x="162.0" y="492.0" width="22.0" height="22.0" style="fill:#ffffff;"/>
   <text x="162.0" y="514.0" style="fill:black;font-family:Helvetica;font-size:18.7px;stroke:yellow;stroke-width:0.8;">0</text>
  </g>
  <g>
   <rect x="184.0" y="492.0" width="22.0" height="22.0" style="fill:#ffffff;"/>
   <text x="184.0" y="514.0" style="fill:black;font-family:Helvetica;font-size:18.7px;stroke:yellow;stroke-width:0.8;">0</text>
  </g>
  <text x="10.0" y="536.0" title="Nepal" style="fill:black;font-family:Helvetica;font-size:18.7px;font-weight:bold;">Nepal</text>
  <g>
   <rect x="140.0" y="514.0" width="22.0" height="22.0" style="fill:#ffffff;"/>
   <text x="140.0" y="536.0" style="fill:black;font-family:Helvetica;font-size:18.7px;stroke:yellow;stroke-width:0.8;">0</text>
  </g>
  <g>
   <rect x="162.0" y="514.0" width="22.0" height="22.0" style="fill:#ffffff;"/>
   <text x="162.0" y="536.0" style="fill:black;font-family:Helvetica;font-size:18.7px;stroke:yellow;stroke-width:0.8;">0</text>
  </g>
  <g>
   <rect x="184.0" y="514.0" width="22.0" height="22.0" style="fill:#ffffff;"/>
   <text x="184.0" y="536.0" style="fill:black;font-family:Helvetica;font-size:18.7px;stroke:yellow;stroke-width:0.8;">0</text>
  </g>
  <text x="10.0" y="558.0" title="Colombia" style="fill:black;font-family:Helvetica;font-size:18.7px;font-weight:bold;">Colombia</text>
  <g>
   <rect x="140.0" y="536.0" width="22.0" height="22.0" style="fill:#ffffff;"/>
   <text x="140.0" y="558.0" style="fill:black;font-family:Helvetica;font-size:18.7px;stroke:yellow;stroke-width:0.8;">0</text>
  </g>
  <g>
   <rect x="162.0" y="536.0" width="22.0" height="22.0" style="fill:#ffffff;"/>
   <text x="162.0" y="558.0" style="fill:black;font-family:Helvetica;font-size:18.7px;stroke:yellow;stroke-width:0.8;">0</text>
  </g>
  <g>
   <rect x="184.0" y="536.0" width="22.0" height="22.0" style="fill:#ffffff;"/>
   <text x="184.0" y="558.0" style="fill:black;font-family:Helvetica;font-size:18.7px;stroke:yellow;stroke-width:0.8;">0</text>
  </g>
  <text x="10.0" y="580.0" title="Hong Kong," style="fill:black;font-family:Helvetica;font-size:18.7px;font-weight:bold;">Hong Kong,</text>
  <g>
   <rect x="140.0" y="558.0" width="22.0" height="22.0" style="fill:#ffffff;"/>
   <text x="140.0" y="580.0" style="fill:black;font-family:Helvetica;font-size:18.7px;stroke:yellow;stroke-width:0.8;">0</text>
  </g>
  <g>
   <rect x="162.0" y="558.0" width="22.0" height="22.0" style="fill:#ffffff;"/>
   <text x="162.0" y="580.0" style="fill:black;font-family:Helvetica;font-size:18.7px;stroke:yellow;stroke-width:0.8;">0</text>
  </g>
  <g>
   <rect x="184.0" y="558.0" width="22.0" height="22.0" style="fill:#ffffff;"/>
   <text x="184.0" y="580.0" style="fill:black;font-family:Helvetica;font-size:18.7px;stroke:yellow;stroke-width:0.8;">0</text>
  </g>
  <text x="10.0" y="602.0" title="Kenya" style="fill:black;font-family:Helvetica;font-size:18.7px;font-weight:bold;">Kenya</text>
  <g>
   <rect x="140.0" y="580.0" width="22.0" height="22.0" style="fill:#ffffff;"/>
   <text x="140.0" y="602.0" style="fill:black;font-family:Helvetica;font-size:18.7px;stroke:yellow;stroke-width:0.8;">0</text>
  </g>
  <g>
   <rect x="162.0" y="580.0" width="22.0" height="22.0" style="fill:#ffffff;"/>
   <text x="162.0" y="602.0" style="fill:black;font-family:Helvetica;font-size:18.7px;stroke:yellow;stroke-width:0.8;">0</text>
  </g>
  <g>
   <rect x="184.0" y="580.0" width="22.0" height="22.0" style="fill:#ffffff;"/>
   <text x="184.0" y="602.0" style="fill:black;font-family:Helvetica;font-size:18.7px;stroke:yellow;stroke-width:0.8;">0</text>
  </g>
  <text x="10.0" y="624.0" title="Switzerland" style="fill:black;font-family:Helvetica;font-size:18.7px;font-weight:bold;">Switzerland</text>
  <g>
   <rect x="140.0" y="602.0" width="22.0" height="22.0" style="fill:#ffffff;"/>
   <text x="140.0" y="624.0" style="fill:black;font-family:Helvetica;font-size:18.7px;stroke:yellow;stroke-width:0.8;">0</text>
  </g>
  <g>
   <rect x="162.0" y="602.0" width="22.0" height="22.0" style="fill:#ffffff;"/>
   <text x="162.0" y="624.0" style="fill:black;font-family:Helvetica;font-size:18.7px;stroke:yellow;stroke-width:0.8;">0</text>
  </g>
  <g>
   <rect x="184.0" y="602.0" width="22.0" height="22.0" style="fill:#ffffff;"/>
   <text x="184.0" y="624.0" style="fill:black;font-family:Helvetica;font-size:18.7px;stroke:yellow;stroke-width:0.8;">0</text>
  </g>
  <text x="10.0" y="646.0" title="Saudi Arabia," style="fill:black;font-family:Helvetica;font-size:18.7px;font-weight:bold;">Saudi Arabia,</text>
  <g>
   <rect x="140.0" y="624.0" width="22.0" height="22.0" style="fill:#ffffff;"/>
   <text x="140.0" y="646.0" style="fill:black;font-family:Helvetica;font-size:18.7px;stroke:yellow;stroke-width:0.8;">0</text>
  </g>
  <g>
   <rect x="162.0" y="624.0" width="22.0" height="22.0" style="fill:#ffffff;"/>
   <text x="162.0" y="646.0" style="fill:black;font-family:Helvetica;font-size:18.7px;stroke:yellow;stroke-width:0.8;">0</text>
  </g>
  <g>
   <rect x="184.0" y="624.0" width="22.0" height="22.0" style="fill:#ffffff;"/>
   <text x="184.0" y="646.0" style="fill:black;font-family:Helvetica;font-size:18.7px;stroke:yellow;stroke-width:0.8;">0</text>
  </g>
  <text x="10.0" y="668.0" title="Belgium" style="fill:black;font-family:Helvetica;font-size:18.7px;font-weight:bold;">Belgium</text>
  <g>
   <rect x="140.0" y="646.0" width="22.0" height="22.0" style="fill:#ffffff;"/>
   <text x="140.0" y="668.0" style="fill:black;font-family:Helvetica;font-size:18.7px;stroke:yellow;stroke-width:0.8;">0</text>
  </g>
  <g>
   <rect x="162.0" y="646.0" width="22.0" height="22.0" style="fill:#ffffff;"/>
   <text x="162.0" y="668.0" style="fill:black;font-family:Helvetica;font-size:18.7px;stroke:yellow;stroke-width:0.8;">0</text>
  </g>
  <g>
   <rect x="184.0" y="646.0" width="22.0" height="22.0" style="fill:#ffffff;"/>
   <text x="184.0" y="668.0" style="fill:black;font-family:Helvetica;font-size:18.7px;stroke:yellow;stroke-width:0.8;">0</text>
  </g>
  <text x="10.0" y="690.0" title="Mexico" style="fill:black;font-family:Helvetica;font-size:18.7px;font-weight:bold;">Mexico</text>
  <g>
   <rect x="140.0" y="668.0" width="22.0" height="22.0" style="fill:#ffffff;"/>
   <text x="140.0" y="690.0" style="fill:black;font-family:Helvetica;font-size:18.7px;stroke:yellow;stroke-width:0.8;">0</text>
  </g>
  <g>
   <rect x="162.0" y="668.0" width="22.0" height="22.0" style="fill:#ffffff;"/>
   <text x="162.0" y="690.0" style="fill:black;font-family:Helvetica;font-size:18.7px;stroke:yellow;stroke-width:0.8;">0</text>
  </g>
  <g>
   <rect x="184.0" y="668.0" width="22.0" height="22.0" style="fill:#ffffff;"/>
   <text x="184.0" y="690.0" style="fill:black;font-family:Helvetica;font-size:18.7px;stroke:yellow;stroke-width:0.8;">0</text>
  </g>
 </g>
</svg>
