<?xml version="1.0" encoding="UTF-8"?>
<svg xmlns="http://www.w3.org/2000/svg">
 <g>
  <text x="10.0" y="162.0" title="India" style="fill:black;font-family:Helvetica;font-size:18.7px;font-weight:bold;">India</text>
  <text x="151.0" y="129.0" transform="matrix(6.123233995736766E-17,-1.0,1.0,6.123233995736766E-17,22.0,280.0)" title="India" style="fill:black;font-family:Helvetica;font-size:18.7px;font-weight:bold;">India</text>
  <g>
   <rect x="140.0" y="140.0" width="22.0" height="22.0" style="fill:#000;"/>
   <text x="140.0" y="162.0" style="fill:black;font-family:Helvetica;font-size:18.7px;stroke:yellow;stroke-width:0.8;">7</text>
  </g>
  <text x="173.0" y="129.0" transform="matrix(6.123233995736766E-17,-1.0,1.0,6.123233995736766E-17,44.0,302.0)" title="Denmark" style="fill:black;font-family:Helvetica;font-size:18.7px;font-weight:bold;">Denmark</text>
  <g>
   <rect x="162.0" y="140.0" width="22.0" height="22.0" style="fill:#dbdbdb;"/>
   <text x="162.0" y="162.0" style="fill:black;font-family:Helvetica;font-size:18.7px;stroke:yellow;stroke-width:0.8;">1</text>
  </g>
  <text x="195.0" y="129.0" transform="matrix(6.123233995736766E-17,-1.0,1.0,6.123233995736766E-17,66.0,324.0)" title="Bangladesh" style="fill:black;font-family:Helvetica;font-size:18.7px;font-weight:bold;">Bangladesh</text>
  <g>
   <rect x="184.0" y="140.0" width="22.0" height="22.0" style="fill:#dbdbdb;"/>
   <text x="184.0" y="162.0" style="fill:black;font-family:Helvetica;font-size:18.7px;stroke:yellow;stroke-width:0.8;">1</text>
  </g>
  <text x="217.0" y="129.0" transform="matrix(6.123233995736766E-17,-1.0,1.0,6.123233995736766E-17,88.0,346.0)" title="China" style="fill:black;font-family:Helvetica;font-size:18.7px;font-weight:bold;">China</text>
  <g>
   <rect x="206.0" y="140.0" width="22.0" height="22.0" style="fill:#dbdbdb;"/>
   <text x="206.0" y="162.0" style="fill:black;font-family:Helvetica;font-size:18.7px;stroke:yellow;stroke-width:0.8;">1</text>
  </g>
  <text x="239.0" y="129.0" transform="matrix(6.123233995736766E-17,-1.0,1.0,6.123233995736766E-17,109.99999999999997,368.0)" title="Thailand" style="fill:black;font-family:Helvetica;font-size:18.7px;font-weight:bold;">Thailand</text>
  <g>
   <rect x="228.0" y="140.0" width="22.0" height="22.0" style="fill:#ffffff;"/>
   <text x="228.0" y="162.0" style="fill:black;font-family:Helvetica;font-size:18.7px;stroke:yellow;stroke-width:0.8;">0</text>
  </g>
  <text x="261.0" y="129.0" transform="matrix(6.123233995736766E-17,-1.0,1.0,6.123233995736766E-17,131.99999999999997,390.0)" title="Canada" style="fill:black;font-family:Helvetica;font-size:18.7px;font-weight:bold;">Canada</text>
  <g>
   <rect x="250.0" y="140.0" width="22.0" height="22.0" style="fill:#dbdbdb;"/>
   <text x="250.0" y="162.0" style="fill:black;font-family:Helvetica;font-size:18.7px;stroke:yellow;stroke-width:0.8;">1</text>
  </g>
  <text x="283.0" y="129.0" transform="matrix(6.123233995736766E-17,-1.0,1.0,6.123233995736766E-17,153.99999999999997,412.0)" title="Netherlands" style="fill:black;font-family:Helvetica;font-size:18.7px;font-weight:bold;">Netherlands</text>
  <g>
   <rect x="272.0" y="140.0" width="22.0" height="22.0" style="fill:#ffffff;"/>
   <text x="272.0" y="162.0" style="fill:black;font-family:Helvetica;font-size:18.7px;stroke:yellow;stroke-width:0.8;">0</text>
  </g>
  <text x="305.0" y="129.0" transform="matrix(6.123233995736766E-17,-1.0,1.0,6.123233995736766E-17,175.99999999999997,434.0)" title="Egypt" style="fill:black;font-family:Helvetica;font-size:18.7px;font-weight:bold;">Egypt</text>
  <g>
   <rect x="294.0" y="140.0" width="22.0" height="22.0" style="fill:#dbdbdb;"/>
   <text x="294.0" y="162.0" style="fill:black;font-family:Helvetica;font-size:18.7px;stroke:yellow;stroke-width:0.8;">1</text>
  </g>
  <text x="327.0" y="129.0" transform="matrix(6.123233995736766E-17,-1.0,1.0,6.123233995736766E-17,197.99999999999997,456.0)" title="Hong Kong," style="fill:black;font-family:Helvetica;font-size:18.7px;font-weight:bold;">Hong Kong,</text>
  <g>
   <rect x="316.0" y="140.0" width="22.0" height="22.0" style="fill:#dbdbdb;"/>
   <text x="316.0" y="162.0" style="fill:black;font-family:Helvetica;font-size:18.7px;stroke:yellow;stroke-width:0.8;">1</text>
  </g>
  <text x="349.0" y="129.0" transform="matrix(6.123233995736766E-17,-1.0,1.0,6.123233995736766E-17,219.99999999999997,478.0)" title="Brazil" style="fill:black;font-family:Helvetica;font-size:18.7px;font-weight:bold;">Brazil</text>
  <g>
   <rect x="338.0" y="140.0" width="22.0" height="22.0" style="fill:#ffffff;"/>
   <text x="338.0" y="162.0" style="fill:black;font-family:Helvetica;font-size:18.7px;stroke:yellow;stroke-width:0.8;">0</text>
  </g>
  <text x="371.0" y="129.0" transform="matrix(6.123233995736766E-17,-1.0,1.0,6.123233995736766E-17,241.99999999999997,500.0)" title="Indonesia" style="fill:black;font-family:Helvetica;font-size:18.7px;font-weight:bold;">Indonesia</text>
  <g>
   <rect x="360.0" y="140.0" width="22.0" height="22.0" style="fill:#dbdbdb;"/>
   <text x="360.0" y="162.0" style="fill:black;font-family:Helvetica;font-size:18.7px;stroke:yellow;stroke-width:0.8;">1</text>
  </g>
  <text x="10.0" y="184.0" title="Denmark" style="fill:black;font-family:Helvetica;font-size:18.7px;font-weight:bold;">Denmark</text>
  <g>
   <rect x="140.0" y="162.0" width="22.0" height="22.0" style="fill:#dbdbdb;"/>
   <text x="140.0" y="184.0" style="fill:black;font-family:Helvetica;font-size:18.7px;stroke:yellow;stroke-width:0.8;">1</text>
  </g>
  <g>
   <rect x="162.0" y="162.0" width="22.0" height="22.0" style="fill:#b7b7b7;"/>
   <text x="162.0" y="184.0" style="fill:black;font-family:Helvetica;font-size:18.7px;stroke:yellow;stroke-width:0.8;">2</text>
  </g>
  <g>
   <rect x="184.0" y="162.0" width="22.0" height="22.0" style="fill:#ffffff;"/>
   <text x="184.0" y="184.0" style="fill:black;font-family:Helvetica;font-size:18.7px;stroke:yellow;stroke-width:0.8;">0</text>
  </g>
  <g>
   <rect x="206.0" y="162.0" width="22.0" height="22.0" style="fill:#ffffff;"/>
   <text x="206.0" y="184.0" style="fill:black;font-family:Helvetica;font-size:18.7px;stroke:yellow;stroke-width:0.8;">0</text>
  </g>
  <g>
   <rect x="228.0" y="162.0" width="22.0" height="22.0" style="fill:#ffffff;"/>
   <text x="228.0" y="184.0" style="fill:black;font-family:Helvetica;font-size:18.7px;stroke:yellow;stroke-width:0.8;">0</text>
  </g>
  <g>
   <rect x="250.0" y="162.0" width="22.0" height="22.0" style="fill:#ffffff;"/>
   <text x="250.0" y="184.0" style="fill:black;font-family:Helvetica;font-size:18.7px;stroke:yellow;stroke-width:0.8;">0</text>
  </g>
  <g>
   <rect x="272.0" y="162.0" width="22.0" height="22.0" style="fill:#ffffff;"/>
   <text x="272.0" y="184.0" style="fill:black;font-family:Helvetica;font-size:18.7px;stroke:yellow;stroke-width:0.8;">0</text>
  </g>
  <g>
   <rect x="294.0" y="162.0" width="22.0" height="22.0" style="fill:#ffffff;"/>
   <text x="294.0" y="184.0" style="fill:black;font-family:Helvetica;font-size:18.7px;stroke:yellow;stroke-width:0.8;">0</text>
  </g>
  <g>
   <rect x="316.0" y="162.0" width="22.0" height="22.0" style="fill:#ffffff;"/>
   <text x="316.0" y="184.0" style="fill:black;font-family:Helvetica;font-size:18.7px;stroke:yellow;stroke-width:0.8;">0</text>
  </g>
  <g>
   <rect x="338.0" y="162.0" width="22.0" height="22.0" style="fill:#ffffff;"/>
   <text x="338.0" y="184.0" style="fill:black;font-family:Helvetica;font-size:18.7px;stroke:yellow;stroke-width:0.8;">0</text>
  </g>
  <g>
   <rect x="360.0" y="162.0" width="22.0" height="22.0" style="fill:#ffffff;"/>
   <text x="360.0" y="184.0" style="fill:black;font-family:Helvetica;font-size:18.7px;stroke:yellow;stroke-width:0.8;">0</text>
  </g>
  <text x="10.0" y="206.0" title="Bangladesh" style="fill:black;font-family:Helvetica;font-size:18.7px;font-weight:bold;">Bangladesh</text>
  <g>
   <rect x="140.0" y="184.0" width="22.0" height="22.0" style="fill:#dbdbdb;"/>
   <text x="140.0" y="206.0" style="fill:black;font-family:Helvetica;font-size:18.7px;stroke:yellow;stroke-width:0.8;">1</text>
  </g>
  <g>
   <rect x="162.0" y="184.0" width="22.0" height="22.0" style="fill:#ffffff;"/>
   <text x="162.0" y="206.0" style="fill:black;font-family:Helvetica;font-size:18.7px;stroke:yellow;stroke-width:0.8;">0</text>
  </g>
  <g>
   <rect x="184.0" y="184.0" width="22.0" height="22.0" style="fill:#dbdbdb;"/>
   <text x="184.0" y="206.0" style="fill:black;font-family:Helvetica;font-size:18.7px;stroke:yellow;stroke-width:0.8;">1</text>
  </g>
  <g>
   <rect x="206.0" y="184.0" width="22.0" height="22.0" style="fill:#dbdbdb;"/>
   <text x="206.0" y="206.0" style="fill:black;font-family:Helvetica;font-size:18.7px;stroke:yellow;stroke-width:0.8;">1</text>
  </g>
  <g>
   <rect x="228.0" y="184.0" width="22.0" height="22.0" style="fill:#ffffff;"/>
   <text x="228.0" y="206.0" style="fill:black;font-family:Helvetica;font-size:18.7px;stroke:yellow;stroke-width:0.8;">0</text>
  </g>
  <g>
   <rect x="250.0" y="184.0" width="22.0" height="22.0" style="fill:#ffffff;"/>
   <text x="250.0" y="206.0" style="fill:black;font-family:Helvetica;font-size:18.7px;stroke:yellow;stroke-width:0.8;">0</text>
  </g>
  <g>
   <rect x="272.0" y="184.0" width="22.0" height="22.0" style="fill:#ffffff;"/>
   <text x="272.0" y="206.0" style="fill:black;font-family:Helvetica;font-size:18.7px;stroke:yellow;stroke-width:0.8;">0</text>
  </g>
  <g>
   <rect x="294.0" y="184.0" width="22.0" height="22.0" style="fill:#dbdbdb;"/>
   <text x="294.0" y="206.0" style="fill:black;font-family:Helvetica;font-size:18.7px;stroke:yellow;stroke-width:0.8;">1</text>
  </g>
  <g>
   <rect x="316.0" y="184.0" width="22.0" height="22.0" style="fill:#dbdbdb;"/>
   <text x="316.0" y="206.0" style="fill:black;font-family:Helvetica;font-size:18.7px;stroke:yellow;stroke-width:0.8;">1</text>
  </g>
  <g>
   <rect x="338.0" y="184.0" width="22.0" height="22.0" style="fill:#ffffff;"/>
   <text x="338.0" y="206.0" style="fill:black;font-family:Helvetica;font-size:18.7px;stroke:yellow;stroke-width:0.8;">0</text>
  </g>
  <g>
   <rect x="360.0" y="184.0" width="22.0" height="22.0" style="fill:#ffffff;"/>
   <text x="360.0" y="206.0" style="fill:black;font-family:Helvetica;font-size:18.7px;stroke:yellow;stroke-width:0.8;">0</text>
  </g>
  <text x="10.0" y="228.0" title="China" style="fill:black;font-family:Helvetica;font-size:18.7px;font-weight:bold;">China</text>
  <g>
   <rect x="140.0" y="206.0" width="22.0" height="22.0" style="fill:#dbdbdb;"/>
   <text x="140.0" y="228.0" style="fill:black;font-family:Helvetica;font-size:18.7px;stroke:yellow;stroke-width:0.8;">1</text>
  </g>
  <g>
   <rect x="162.0" y="206.0" width="22.0" height="22.0" style="fill:#ffffff;"/>
   <text x="162.0" y="228.0" style="fill:black;font-family:Helvetica;font-size:18.7px;stroke:yellow;stroke-width:0.8;">0</text>
  </g>
  <g>
   <rect x="184.0" y="206.0" width="22.0" height="22.0" style="fill:#dbdbdb;"/>
   <text x="184.0" y="228.0" style="fill:black;font-family:Helvetica;font-size:18.7px;stroke:yellow;stroke-width:0.8;">1</text>
  </g>
  <g>
   <rect x="206.0" y="206.0" width="22.0" height="22.0" style="fill:#dbdbdb;"/>
   <text x="206.0" y="228.0" style="fill:black;font-family:Helvetica;font-size:18.7px;stroke:yellow;stroke-width:0.8;">1</text>
  </g>
  <g>
   <rect x="228.0" y="206.0" width="22.0" height="22.0" style="fill:#ffffff;"/>
   <text x="228.0" y="228.0" style="fill:black;font-family:Helvetica;font-size:18.7px;stroke:yellow;stroke-width:0.8;">0</text>
  </g>
  <g>
   <rect x="250.0" y="206.0" width="22.0" height="22.0" style="fill:#ffffff;"/>
   <text x="250.0" y="228.0" style="fill:black;font-family:Helvetica;font-size:18.7px;stroke:yellow;stroke-width:0.8;">0</text>
  </g>
  <g>
   <rect x="272.0" y="206.0" width="22.0" height="22.0" style="fill:#ffffff;"/>
   <text x="272.0" y="228.0" style="fill:black;font-family:Helvetica;font-size:18.7px;stroke:yellow;stroke-width:0.8;">0</text>
  </g>
  <g>
   <rect x="294.0" y="206.0" width="22.0" height="22.0" style="fill:#dbdbdb;"/>
   <text x="294.0" y="228.0" style="fill:black;font-family:Helvetica;font-size:18.7px;stroke:yellow;stroke-width:0.8;">1</text>
  </g>
  <g>
   <rect x="316.0" y="206.0" width="22.0" height="22.0" style="fill:#dbdbdb;"/>
   <text x="316.0" y="228.0" style="fill:black;font-family:Helvetica;font-size:18.7px;stroke:yellow;stroke-width:0.8;">1</text>
  </g>
  <g>
   <rect x="338.0" y="206.0" width="22.0" height="22.0" style="fill:#ffffff;"/>
   <text x="338.0" y="228.0" style="fill:black;font-family:Helvetica;font-size:18.7px;stroke:yellow;stroke-width:0.8;">0</text>
  </g>
  <g>
   <rect x="360.0" y="206.0" width="22.0" height="22.0" style="fill:#ffffff;"/>
   <text x="360.0" y="228.0" style="fill:black;font-family:Helvetica;font-size:18.7px;stroke:yellow;stroke-width:0.8;">0</text>
  </g>
  <text x="10.0" y="250.0" title="Thailand" style="fill:black;font-family:Helvetica;font-size:18.7px;font-weight:bold;">Thailand</text>
  <g>
   <rect x="140.0" y="228.0" width="22.0" height="22.0" style="fill:#ffffff;"/>
   <text x="140.0" y="250.0" style="fill:black;font-family:Helvetica;font-size:18.7px;stroke:yellow;stroke-width:0.8;">0</text>
  </g>
  <g>
   <rect x="162.0" y="228.0" width="22.0" height="22.0" style="fill:#ffffff;"/>
   <text x="162.0" y="250.0" style="fill:black;font-family:Helvetica;font-size:18.7px;stroke:yellow;stroke-width:0.8;">0</text>
  </g>
  <g>
   <rect x="184.0" y="228.0" width="22.0" height="22.0" style="fill:#ffffff;"/>
   <text x="184.0" y="250.0" style="fill:black;font-family:Helvetica;font-size:18.7px;stroke:yellow;stroke-width:0.8;">0</text>
  </g>
  <g>
   <rect x="206.0" y="228.0" width="22.0" height="22.0" style="fill:#ffffff;"/>
   <text x="206.0" y="250.0" style="fill:black;font-family:Helvetica;font-size:18.7px;stroke:yellow;stroke-width:0.8;">0</text>
  </g>
  <g>
   <rect x="228.0" y="228.0" width="22.0" height="22.0" style="fill:#dbdbdb;"/>
   <text x="228.0" y="250.0" style="fill:black;font-family:Helvetica;font-size:18.7px;stroke:yellow;stroke-width:0.8;">1</text>
  </g>
  <g>
   <rect x="250.0" y="228.0" width="22.0" height="22.0" style="fill:#ffffff;"/>
   <text x="250.0" y="250.0" style="fill:black;font-family:Helvetica;font-size:18.7px;stroke:yellow;stroke-width:0.8;">0</text>
  </g>
  <g>
   <rect x="272.0" y="228.0" width="22.0" height="22.0" style="fill:#dbdbdb;"/>
   <text x="272.0" y="250.0" style="fill:black;font-family:Helvetica;font-size:18.7px;stroke:yellow;stroke-width:0.8;">1</text>
  </g>
  <g>
   <rect x="294.0" y="228.0" width="22.0" height="22.0" style="fill:#ffffff;"/>
   <text x="294.0" y="250.0" style="fill:black;font-family:Helvetica;font-size:18.7px;stroke:yellow;stroke-width:0.8;">0</text>
  </g>
  <g>
   <rect x="316.0" y="228.0" width="22.0" height="22.0" style="fill:#ffffff;"/>
   <text x="316.0" y="250.0" style="fill:black;font-family:Helvetica;font-size:18.7px;stroke:yellow;stroke-width:0.8;">0</text>
  </g>
  <g>
   <rect x="338.0" y="228.0" width="22.0" height="22.0" style="fill:#dbdbdb;"/>
   <text x="338.0" y="250.0" style="fill:black;font-family:Helvetica;font-size:18.7px;stroke:yellow;stroke-width:0.8;">1</text>
  </g>
  <g>
   <rect x="360.0" y="228.0" width="22.0" height="22.0" style="fill:#ffffff;"/>
   <text x="360.0" y="250.0" style="fill:black;font-family:Helvetica;font-size:18.7px;stroke:yellow;stroke-width:0.8;">0</text>
  </g>
  <text x="10.0" y="272.0" title="Canada" style="fill:black;font-family:Helvetica;font-size:18.7px;font-weight:bold;">Canada</text>
  <g>
   <rect x="140.0" y="250.0" width="22.0" height="22.0" style="fill:#dbdbdb;"/>
   <text x="140.0" y="272.0" style="fill:black;font-family:Helvetica;font-size:18.7px;stroke:yellow;stroke-width:0.8;">1</text>
  </g>
  <g>
   <rect x="162.0" y="250.0" width="22.0" height="22.0" style="fill:#ffffff;"/>
   <text x="162.0" y="272.0" style="fill:black;font-family:Helvetica;font-size:18.7px;stroke:yellow;stroke-width:0.8;">0</text>
  </g>
  <g>
   <rect x="184.0" y="250.0" width="22.0" height="22.0" style="fill:#ffffff;"/>
   <text x="184.0" y="272.0" style="fill:black;font-family:Helvetica;font-size:18.7px;stroke:yellow;stroke-width:0.8;">0</text>
  </g>
  <g>
   <rect x="206.0" y="250.0" width="22.0" height="22.0" style="fill:#ffffff;"/>
   <text x="206.0" y="272.0" style="fill:black;font-family:Helvetica;font-size:18.7px;stroke:yellow;stroke-width:0.8;">0</text>
  </g>
  <g>
   <rect x="228.0" y="250.0" width="22.0" height="22.0" style="fill:#ffffff;"/>
   <text x="228.0" y="272.0" style="fill:black;font-family:Helvetica;font-size:18.7px;stroke:yellow;stroke-width:0.8;">0</text>
  </g>
  <g>
   <rect x="250.0" y="250.0" width="22.0" height="22.0" style="fill:#dbdbdb;"/>
   <text x="250.0" y="272.0" style="fill:black;font-family:Helvetica;font-size:18.7px;stroke:yellow;stroke-width:0.8;">1</text>
  </g>
  <g>
   <rect x="272.0" y="250.0" width="22.0" height="22.0" style="fill:#ffffff;"/>
   <text x="272.0" y="272.0" style="fill:black;font-family:Helvetica;font-size:18.7px;stroke:yellow;stroke-width:0.8;">0</text>
  </g>
  <g>
   <rect x="294.0" y="250.0" width="22.0" height="22.0" style="fill:#ffffff;"/>
   <text x="294.0" y="272.0" style="fill:black;font-family:Helvetica;font-size:18.7px;stroke:yellow;stroke-width:0.8;">0</text>
  </g>
  <g>
   <rect x="316.0" y="250.0" width="22.0" height="22.0" style="fill:#ffffff;"/>
   <text x="316.0" y="272.0" style="fill:black;font-family:Helvetica;font-size:18.7px;stroke:yellow;stroke-width:0.8;">0</text>
  </g>
  <g>
   <rect x="338.0" y="250.0" width="22.0" height="22.0" style="fill:#ffffff;"/>
   <text x="338.0" y="272.0" style="fill:black;font-family:Helvetica;font-size:18.7px;stroke:yellow;stroke-width:0.8;">0</text>
  </g>
  <g>
   <rect x="360.0" y="250.0" width="22.0" height="22.0" style="fill:#ffffff;"/>
   <text x="360.0" y="272.0" style="fill:black;font-family:Helvetica;font-size:18.7px;stroke:yellow;stroke-width:0.8;">0</text>
  </g>
  <text x="10.0" y="294.0" title="Netherlands" style="fill:black;font-family:Helvetica;font-size:18.7px;font-weight:bold;">Netherlands</text>
  <g>
   <rect x="140.0" y="272.0" width="22.0" height="22.0" style="fill:#ffffff;"/>
   <text x="140.0" y="294.0" style="fill:black;font-family:Helvetica;font-size:18.7px;stroke:yellow;stroke-width:0.8;">0</text>
  </g>
  <g>
   <rect x="162.0" y="272.0" width="22.0" height="22.0" style="fill:#ffffff;"/>
   <text x="162.0" y="294.0" style="fill:black;font-family:Helvetica;font-size:18.7px;stroke:yellow;stroke-width:0.8;">0</text>
  </g>
  <g>
   <rect x="184.0" y="272.0" width="22.0" height="22.0" style="fill:#ffffff;"/>
   <text x="184.0" y="294.0" style="fill:black;font-family:Helvetica;font-size:18.7px;stroke:yellow;stroke-width:0.8;">0</text>
  </g>
  <g>
   <rect x="206.0" y="272.0" width="22.0" height="22.0" style="fill:#ffffff;"/>
   <text x="206.0" y="294.0" style="fill:black;font-family:Helvetica;font-size:18.7px;stroke:yellow;stroke-width:0.8;">0</text>
  </g>
  <g>
   <rect x="228.0" y="272.0" width="22.0" height="22.0" style="fill:#dbdbdb;"/>
   <text x="228.0" y="294.0" style="fill:black;font-family:Helvetica;font-size:18.7px;stroke:yellow;stroke-width:0.8;">1</text>
  </g>
  <g>
   <rect x="250.0" y="272.0" width="22.0" height="22.0" style="fill:#ffffff;"/>
   <text x="250.0" y="294.0" style="fill:black;font-family:Helvetica;font-size:18.7px;stroke:yellow;stroke-width:0.8;">0</text>
  </g>
  <g>
   <rect x="272.0" y="272.0" width="22.0" height="22.0" style="fill:#dbdbdb;"/>
   <text x="272.0" y="294.0" style="fill:black;font-family:Helvetica;font-size:18.7px;stroke:yellow;stroke-width:0.8;">1</text>
  </g>
  <g>
   <rect x="294.0" y="272.0" width="22.0" height="22.0" style="fill:#ffffff;"/>
   <text x="294.0" y="294.0" style="fill:black;font-family:Helvetica;font-size:18.7px;stroke:yellow;stroke-width:0.8;">0</text>
  </g>
  <g>
   <rect x="316.0" y="272.0" width="22.0" height="22.0" style="fill:#ffffff;"/>
   <text x="316.0" y="294.0" style="fill:black;font-family:Helvetica;font-size:18.7px;stroke:yellow;stroke-width:0.8;">0</text>
  </g>
  <g>
   <rect x="338.0" y="272.0" width="22.0" height="22.0" style="fill:#dbdbdb;"/>
   <text x="338.0" y="294.0" style="fill:black;font-family:Helvetica;font-size:18.7px;stroke:yellow;stroke-width:0.8;">1</text>
  </g>
  <g>
   <rect x="360.0" y="272.0" width="22.0" height="22.0" style="fill:#ffffff;"/>
   <text x="360.0" y="294.0" style="fill:black;font-family:Helvetica;font-size:18.7px;stroke:yellow;stroke-width:0.8;">0</text>
  </g>
  <text x="10.0" y="316.0" title="Egypt" style="fill:black;font-family:Helvetica;font-size:18.7px;font-weight:bold;">Egypt</text>
  <g>
   <rect x="140.0" y="294.0" width="22.0" height="22.0" style="fill:#dbdbdb;"/>
   <text x="140.0" y="316.0" style="fill:black;font-family:Helvetica;font-size:18.7px;stroke:yellow;stroke-width:0.8;">1</text>
  </g>
  <g>
   <rect x="162.0" y="294.0" width="22.0" height="22.0" style="fill:#ffffff;"/>
   <text x="162.0" y="316.0" style="fill:black;font-family:Helvetica;font-size:18.7px;stroke:yellow;stroke-width:0.8;">0</text>
  </g>
  <g>
   <rect x="184.0" y="294.0" width="22.0" height="22.0" style="fill:#dbdbdb;"/>
   <text x="184.0" y="316.0" style="fill:black;font-family:Helvetica;font-size:18.7px;stroke:yellow;stroke-width:0.8;">1</text>
  </g>
  <g>
   <rect x="206.0" y="294.0" width="22.0" height="22.0" style="fill:#dbdbdb;"/>
   <text x="206.0" y="316.0" style="fill:black;font-family:Helvetica;font-size:18.7px;stroke:yellow;stroke-width:0.8;">1</text>
  </g>
  <g>
   <rect x="228.0" y="294.0" width="22.0" height="22.0" style="fill:#ffffff;"/>
   <text x="228.0" y="316.0" style="fill:black;font-family:Helvetica;font-size:18.7px;stroke:yellow;stroke-width:0.8;">0</text>
  </g>
  <g>
   <rect x="250.0" y="294.0" width="22.0" height="22.0" style="fill:#ffffff;"/>
   <text x="250.0" y="316.0" style="fill:black;font-family:Helvetica;font-size:18.7px;stroke:yellow;stroke-width:0.8;">0</text>
  </g>
  <g>
   <rect x="272.0" y="294.0" width="22.0" height="22.0" style="fill:#ffffff;"/>
   <text x="272.0" y="316.0" style="fill:black;font-family:Helvetica;font-size:18.7px;stroke:yellow;stroke-width:0.8;">0</text>
  </g>
  <g>
   <rect x="294.0" y="294.0" width="22.0" height="22.0" style="fill:#dbdbdb;"/>
   <text x="294.0" y="316.0" style="fill:black;font-family:Helvetica;font-size:18.7px;stroke:yellow;stroke-width:0.8;">1</text>
  </g>
  <g>
   <rect x="316.0" y="294.0" width="22.0" height="22.0" style="fill:#dbdbdb;"/>
   <text x="316.0" y="316.0" style="fill:black;font-family:Helvetica;font-size:18.7px;stroke:yellow;stroke-width:0.8;">1</text>
  </g>
  <g>
   <rect x="338.0" y="294.0" width="22.0" height="22.0" style="fill:#ffffff;"/>
   <text x="338.0" y="316.0" style="fill:black;font-family:Helvetica;font-size:18.7px;stroke:yellow;stroke-width:0.8;">0</text>
  </g>
  <g>
   <rect x="360.0" y="294.0" width="22.0" height="22.0" style="fill:#ffffff;"/>
   <text x="360.0" y="316.0" style="fill:black;font-family:Helvetica;font-size:18.7px;stroke:yellow;stroke-width:0.8;">0</text>
  </g>
  <text x="10.0" y="338.0" title="Hong Kong," style="fill:black;font-family:Helvetica;font-size:18.7px;font-weight:bold;">Hong Kong,</text>
  <g>
   <rect x="140.0" y="316.0" width="22.0" height="22.0" style="fill:#dbdbdb;"/>
   <text x="140.0" y="338.0" style="fill:black;font-family:Helvetica;font-size:18.7px;stroke:yellow;stroke-width:0.8;">1</text>
  </g>
  <g>
   <rect x="162.0" y="316.0" width="22.0" height="22.0" style="fill:#ffffff;"/>
   <text x="162.0" y="338.0" style="fill:black;font-family:Helvetica;font-size:18.7px;stroke:yellow;stroke-width:0.8;">0</text>
  </g>
  <g>
   <rect x="184.0" y="316.0" width="22.0" height="22.0" style="fill:#dbdbdb;"/>
   <text x="184.0" y="338.0" style="fill:black;font-family:Helvetica;font-size:18.7px;stroke:yellow;stroke-width:0.8;">1</text>
  </g>
  <g>
   <rect x="206.0" y="316.0" width="22.0" height="22.0" style="fill:#dbdbdb;"/>
   <text x="206.0" y="338.0" style="fill:black;font-family:Helvetica;font-size:18.7px;stroke:yellow;stroke-width:0.8;">1</text>
  </g>
  <g>
   <rect x="228.0" y="316.0" width="22.0" height="22.0" style="fill:#ffffff;"/>
   <text x="228.0" y="338.0" style="fill:black;font-family:Helvetica;font-size:18.7px;stroke:yellow;stroke-width:0.8;">0</text>
  </g>
  <g>
   <rect x="250.0" y="316.0" width="22.0" height="22.0" style="fill:#ffffff;"/>
   <text x="250.0" y="338.0" style="fill:black;font-family:Helvetica;font-size:18.7px;stroke:yellow;stroke-width:0.8;">0</text>
  </g>
  <g>
   <rect x="272.0" y="316.0" width="22.0" height="22.0" style="fill:#ffffff;"/>
   <text x="272.0" y="338.0" style="fill:black;font-family:Helvetica;font-size:18.7px;stroke:yellow;stroke-width:0.8;">0</text>
  </g>
  <g>
   <rect x="294.0" y="316.0" width="22.0" height="22.0" style="fill:#dbdbdb;"/>
   <text x="294.0" y="338.0" style="fill:black;font-family:Helvetica;font-size:18.7px;stroke:yellow;stroke-width:0.8;">1</text>
  </g>
  <g>
   <rect x="316.0" y="316.0" width="22.0" height="22.0" style="fill:#dbdbdb;"/>
   <text x="316.0" y="338.0" style="fill:black;font-family:Helvetica;font-size:18.7px;stroke:yellow;stroke-width:0.8;">1</text>
  </g>
  <g>
   <rect x="338.0" y="316.0" width="22.0" height="22.0" style="fill:#ffffff;"/>
   <text x="338.0" y="338.0" style="fill:black;font-family:Helvetica;font-size:18.7px;stroke:yellow;stroke-width:0.8;">0</text>
  </g>
  <g>
   <rect x="360.0" y="316.0" width="22.0" height="22.0" style="fill:#ffffff;"/>
   <text x="360.0" y="338.0" style="fill:black;font-family:Helvetica;font-size:18.7px;stroke:yellow;stroke-width:0.8;">0</text>
  </g>
  <text x="10.0" y="360.0" title="Brazil" style="fill:black;font-family:Helvetica;font-size:18.7px;font-weight:bold;">Brazil</text>
  <g>
   <rect x="140.0" y="338.0" width="22.0" height="22.0" style="fill:#ffffff;"/>
   <text x="140.0" y="360.0" style="fill:black;font-family:Helvetica;font-size:18.7px;stroke:yellow;stroke-width:0.8;">0</text>
  </g>
  <g>
   <rect x="162.0" y="338.0" width="22.0" height="22.0" style="fill:#ffffff;"/>
   <text x="162.0" y="360.0" style="fill:black;font-family:Helvetica;font-size:18.7px;stroke:yellow;stroke-width:0.8;">0</text>
  </g>
  <g>
   <rect x="184.0" y="338.0" width="22.0" height="22.0" style="fill:#ffffff;"/>
   <text x="184.0" y="360.0" style="fill:black;font-family:Helvetica;font-size:18.7px;stroke:yellow;stroke-width:0.8;">0</text>
  </g>
  <g>
   <rect x="206.0" y="338.0" width="22.0" height="22.0" style="fill:#ffffff;"/>
   <text x="206.0" y="360.0" style="fill:black;font-family:Helvetica;font-size:18.7px;stroke:yellow;stroke-width:0.8;">0</text>
  </g>
  <g>
   <rect x="228.0" y="338.0" width="22.0" height="22.0" style="fill:#dbdbdb;"/>
   <text x="228.0" y="360.0" style="fill:black;font-family:Helvetica;font-size:18.7px;stroke:yellow;stroke-width:0.8;">1</text>
  </g>
  <g>
   <rect x="250.0" y="338.0" width="22.0" height="22.0" style="fill:#ffffff;"/>
   <text x="250.0" y="360.0" style="fill:black;font-family:Helvetica;font-size:18.7px;stroke:yellow;stroke-width:0.8;">0</text>
  </g>
  <g>
   <rect x="272.0" y="338.0" width="22.0" height="22.0" style="fill:#dbdbdb;"/>
   <text x="272.0" y="360.0" style="fill:black;font-family:Helvetica;font-size:18.7px;stroke:yellow;stroke-width:0.8;">1</text>
  </g>
  <g>
   <rect x="294.0" y="338.0" width="22.0" height="22.0" style="fill:#ffffff;"/>
   <text x="294.0" y="360.0" style="fill:black;font-family:Helvetica;font-size:18.7px;stroke:yellow;stroke-width:0.8;">0</text>
  </g>
  <g>
   <rect x="316.0" y="338.0" width="22.0" height="22.0" style="fill:#ffffff;"/>
   <text x="316.0" y="360.0" style="fill:black;font-family:Helvetica;font-size:18.7px;stroke:yellow;stroke-width:0.8;">0</text>
  </g>
  <g>
   <rect x="338.0" y="338.0" width="22.0" height="22.0" style="fill:#dbdbdb;"/>
   <text x="338.0" y="360.0" style="fill:black;font-family:Helvetica;font-size:18.7px;stroke:yellow;stroke-width:0.8;">1</text>
  </g>
  <g>
   <rect x="360.0" y="338.0" width="22.0" height="22.0" style="fill:#ffffff;"/>
   <text x="360.0" y="360.0" style="fill:black;font-family:Helvetica;font-size:18.7px;stroke:yellow;stroke-width:0.8;">0</text>
  </g>
  <text x="10.0" y="382.0" title="Indonesia" style="fill:black;font-family:Helvetica;font-size:18.7px;font-weight:bold;">Indonesia</text>
  <g>
   <rect x="140.0" y="360.0" width="22.0" height="22.0" style="fill:#dbdbdb;"/>
   <text x="140.0" y="382.0" style="fill:black;font-family:Helvetica;font-size:18.7px;stroke:yellow;stroke-width:0.8;">1</text>
  </g>
  <g>
   <rect x="162.0" y="360.0" width="22.0" height="22.0" style="fill:#ffffff;"/>
   <text x="162.0" y="382.0" style="fill:black;font-family:Helvetica;font-size:18.7px;stroke:yellow;stroke-width:0.8;">0</text>
  </g>
  <g>
   <rect x="184.0" y="360.0" width="22.0" height="22.0" style="fill:#ffffff;"/>
   <text x="184.0" y="382.0" style="fill:black;font-family:Helvetica;font-size:18.7px;stroke:yellow;stroke-width:0.8;">0</text>
  </g>
  <g>
   <rect x="206.0" y="360.0" width="22.0" height="22.0" style="fill:#ffffff;"/>
   <text x="206.0" y="382.0" style="fill:black;font-family:Helvetica;font-size:18.7px;stroke:yellow;stroke-width:0.8;">0</text>
  </g>
  <g>
   <rect x="228.0" y="360.0" width="22.0" height="22.0" style="fill:#ffffff;"/>
   <text x="228.0" y="382.0" style="fill:black;font-family:Helvetica;font-size:18.7px;stroke:yellow;stroke-width:0.8;">0</text>
  </g>
  <g>
   <rect x="250.0" y="360.0" width="22.0" height="22.0" style="fill:#ffffff;"/>
   <text x="250.0" y="382.0" style="fill:black;font-family:Helvetica;font-size:18.7px;stroke:yellow;stroke-width:0.8;">0</text>
  </g>
  <g>
   <rect x="272.0" y="360.0" width="22.0" height="22.0" style="fill:#ffffff;"/>
   <text x="272.0" y="382.0" style="fill:black;font-family:Helvetica;font-size:18.7px;stroke:yellow;stroke-width:0.8;">0</text>
  </g>
  <g>
   <rect x="294.0" y="360.0" width="22.0" height="22.0" style="fill:#ffffff;"/>
   <text x="294.0" y="382.0" style="fill:black;font-family:Helvetica;font-size:18.7px;stroke:yellow;stroke-width:0.8;">0</text>
  </g>
  <g>
   <rect x="316.0" y="360.0" width="22.0" height="22.0" style="fill:#ffffff;"/>
   <text x="316.0" y="382.0" style="fill:black;font-family:Helvetica;font-size:18.7px;stroke:yellow;stroke-width:0.8;">0</text>
  </g>
  <g>
   <rect x="338.0" y="360.0" width="22.0" height="22.0" style="fill:#ffffff;"/>
   <text x="338.0" y="382.0" style="fill:black;font-family:Helvetica;font-size:18.7px;stroke:yellow;stroke-width:0.8;">0</text>
  </g>
  <g>
   <rect x="360.0" y="360.0" width="22.0" height="22.0" style="fill:#dbdbdb;"/>
   <text x="360.0" y="382.0" style="fill:black;font-family:Helvetica;font-size:18.7px;stroke:yellow;stroke-width:0.8;">1</text>
  </g>
 </g>
</svg>
