<?xml version="1.0" encoding="UTF-8"?>
<svg xmlns="http://www.w3.org/2000/svg">
 <g>
  <text x="10.0" y="162.0" title="mevastatin" style="fill:black;font-family:Helvetica;font-size:18.7px;font-weight:bold;">mevastatin</text>
  <text x="151.0" y="129.0" transform="matrix(6.123233995736766E-17,-1.0,1.0,6.123233995736766E-17,22.0,280.0)" title="Camphor" style="fill:black;font-family:Helvetica;font-size:18.7px;font-weight:bold;">Camphor</text>
  <g>
   <rect x="140.0" y="140.0" width="22.0" height="22.0" style="fill:#000;"/>
   <text x="140.0" y="162.0" style="fill:black;font-family:Helvetica;font-size:18.7px;stroke:yellow;stroke-width:0.8;">1</text>
  </g>
  <text x="173.0" y="129.0" transform="matrix(6.123233995736766E-17,-1.0,1.0,6.123233995736766E-17,44.0,302.0)" title="Myrcene" style="fill:black;font-family:Helvetica;font-size:18.7px;font-weight:bold;">Myrcene</text>
  <g>
   <rect x="162.0" y="140.0" width="22.0" height="22.0" style="fill:#ffffff;"/>
   <text x="162.0" y="162.0" style="fill:black;font-family:Helvetica;font-size:18.7px;stroke:yellow;stroke-width:0.8;">0</text>
  </g>
  <text x="195.0" y="129.0" transform="matrix(6.123233995736766E-17,-1.0,1.0,6.123233995736766E-17,66.0,324.0)" title="Ocimene" style="fill:black;font-family:Helvetica;font-size:18.7px;font-weight:bold;">Ocimene</text>
  <g>
   <rect x="184.0" y="140.0" width="22.0" height="22.0" style="fill:#ffffff;"/>
   <text x="184.0" y="162.0" style="fill:black;font-family:Helvetica;font-size:18.7px;stroke:yellow;stroke-width:0.8;">0</text>
  </g>
  <text x="217.0" y="129.0" transform="matrix(6.123233995736766E-17,-1.0,1.0,6.123233995736766E-17,88.0,346.0)" title="Geraniol" style="fill:black;font-family:Helvetica;font-size:18.7px;font-weight:bold;">Geraniol</text>
  <g>
   <rect x="206.0" y="140.0" width="22.0" height="22.0" style="fill:#ffffff;"/>
   <text x="206.0" y="162.0" style="fill:black;font-family:Helvetica;font-size:18.7px;stroke:yellow;stroke-width:0.8;">0</text>
  </g>
  <text x="10.0" y="184.0" title="artemisinin" style="fill:black;font-family:Helvetica;font-size:18.7px;font-weight:bold;">artemisinin</text>
  <g>
   <rect x="140.0" y="162.0" width="22.0" height="22.0" style="fill:#000;"/>
   <text x="140.0" y="184.0" style="fill:black;font-family:Helvetica;font-size:18.7px;stroke:yellow;stroke-width:0.8;">1</text>
  </g>
  <g>
   <rect x="162.0" y="162.0" width="22.0" height="22.0" style="fill:#ffffff;"/>
   <text x="162.0" y="184.0" style="fill:black;font-family:Helvetica;font-size:18.7px;stroke:yellow;stroke-width:0.8;">0</text>
  </g>
  <g>
   <rect x="184.0" y="162.0" width="22.0" height="22.0" style="fill:#ffffff;"/>
   <text x="184.0" y="184.0" style="fill:black;font-family:Helvetica;font-size:18.7px;stroke:yellow;stroke-width:0.8;">0</text>
  </g>
  <g>
   <rect x="206.0" y="162.0" width="22.0" height="22.0" style="fill:#ffffff;"/>
   <text x="206.0" y="184.0" style="fill:black;font-family:Helvetica;font-size:18.7px;stroke:yellow;stroke-width:0.8;">0</text>
  </g>
  <text x="10.0" y="206.0" title="pravastatin" style="fill:black;font-family:Helvetica;font-size:18.7px;font-weight:bold;">pravastatin</text>
  <g>
   <rect x="140.0" y="184.0" width="22.0" height="22.0" style="fill:#000;"/>
   <text x="140.0" y="206.0" style="fill:black;font-family:Helvetica;font-size:18.7px;stroke:yellow;stroke-width:0.8;">1</text>
  </g>
  <g>
   <rect x="162.0" y="184.0" width="22.0" height="22.0" style="fill:#ffffff;"/>
   <text x="162.0" y="206.0" style="fill:black;font-family:Helvetica;font-size:18.7px;stroke:yellow;stroke-width:0.8;">0</text>
  </g>
  <g>
   <rect x="184.0" y="184.0" width="22.0" height="22.0" style="fill:#ffffff;"/>
   <text x="184.0" y="206.0" style="fill:black;font-family:Helvetica;font-size:18.7px;stroke:yellow;stroke-width:0.8;">0</text>
  </g>
  <g>
   <rect x="206.0" y="184.0" width="22.0" height="22.0" style="fill:#ffffff;"/>
   <text x="206.0" y="206.0" style="fill:black;font-family:Helvetica;font-size:18.7px;stroke:yellow;stroke-width:0.8;">0</text>
  </g>
  <text x="10.0" y="228.0" title="amantadine" style="fill:black;font-family:Helvetica;font-size:18.7px;font-weight:bold;">amantadine</text>
  <g>
   <rect x="140.0" y="206.0" width="22.0" height="22.0" style="fill:#ffffff;"/>
   <text x="140.0" y="228.0" style="fill:black;font-family:Helvetica;font-size:18.7px;stroke:yellow;stroke-width:0.8;">0</text>
  </g>
  <g>
   <rect x="162.0" y="206.0" width="22.0" height="22.0" style="fill:#ffffff;"/>
   <text x="162.0" y="228.0" style="fill:black;font-family:Helvetica;font-size:18.7px;stroke:yellow;stroke-width:0.8;">0</text>
  </g>
  <g>
   <rect x="184.0" y="206.0" width="22.0" height="22.0" style="fill:#ffffff;"/>
   <text x="184.0" y="228.0" style="fill:black;font-family:Helvetica;font-size:18.7px;stroke:yellow;stroke-width:0.8;">0</text>
  </g>
  <g>
   <rect x="206.0" y="206.0" width="22.0" height="22.0" style="fill:#ffffff;"/>
   <text x="206.0" y="228.0" style="fill:black;font-family:Helvetica;font-size:18.7px;stroke:yellow;stroke-width:0.8;">0</text>
  </g>
  <text x="10.0" y="250.0" title="oseltamivir" style="fill:black;font-family:Helvetica;font-size:18.7px;font-weight:bold;">oseltamivir</text>
  <g>
   <rect x="140.0" y="228.0" width="22.0" height="22.0" style="fill:#ffffff;"/>
   <text x="140.0" y="250.0" style="fill:black;font-family:Helvetica;font-size:18.7px;stroke:yellow;stroke-width:0.8;">0</text>
  </g>
  <g>
   <rect x="162.0" y="228.0" width="22.0" height="22.0" style="fill:#ffffff;"/>
   <text x="162.0" y="250.0" style="fill:black;font-family:Helvetica;font-size:18.7px;stroke:yellow;stroke-width:0.8;">0</text>
  </g>
  <g>
   <rect x="184.0" y="228.0" width="22.0" height="22.0" style="fill:#ffffff;"/>
   <text x="184.0" y="250.0" style="fill:black;font-family:Helvetica;font-size:18.7px;stroke:yellow;stroke-width:0.8;">0</text>
  </g>
  <g>
   <rect x="206.0" y="228.0" width="22.0" height="22.0" style="fill:#ffffff;"/>
   <text x="206.0" y="250.0" style="fill:black;font-family:Helvetica;font-size:18.7px;stroke:yellow;stroke-width:0.8;">0</text>
  </g>
  <text x="10.0" y="272.0" title="nystatin" style="fill:black;font-family:Helvetica;font-size:18.7px;font-weight:bold;">nystatin</text>
  <g>
   <rect x="140.0" y="250.0" width="22.0" height="22.0" style="fill:#ffffff;"/>
   <text x="140.0" y="272.0" style="fill:black;font-family:Helvetica;font-size:18.7px;stroke:yellow;stroke-width:0.8;">0</text>
  </g>
  <g>
   <rect x="162.0" y="250.0" width="22.0" height="22.0" style="fill:#ffffff;"/>
   <text x="162.0" y="272.0" style="fill:black;font-family:Helvetica;font-size:18.7px;stroke:yellow;stroke-width:0.8;">0</text>
  </g>
  <g>
   <rect x="184.0" y="250.0" width="22.0" height="22.0" style="fill:#ffffff;"/>
   <text x="184.0" y="272.0" style="fill:black;font-family:Helvetica;font-size:18.7px;stroke:yellow;stroke-width:0.8;">0</text>
  </g>
  <g>
   <rect x="206.0" y="250.0" width="22.0" height="22.0" style="fill:#ffffff;"/>
   <text x="206.0" y="272.0" style="fill:black;font-family:Helvetica;font-size:18.7px;stroke:yellow;stroke-width:0.8;">0</text>
  </g>
  <text x="10.0" y="294.0" title="salicylic acid" style="fill:black;font-family:Helvetica;font-size:18.7px;font-weight:bold;">salicylic acid</text>
  <g>
   <rect x="140.0" y="272.0" width="22.0" height="22.0" style="fill:#000;"/>
   <text x="140.0" y="294.0" style="fill:black;font-family:Helvetica;font-size:18.7px;stroke:yellow;stroke-width:0.8;">1</text>
  </g>
  <g>
   <rect x="162.0" y="272.0" width="22.0" height="22.0" style="fill:#ffffff;"/>
   <text x="162.0" y="294.0" style="fill:black;font-family:Helvetica;font-size:18.7px;stroke:yellow;stroke-width:0.8;">0</text>
  </g>
  <g>
   <rect x="184.0" y="272.0" width="22.0" height="22.0" style="fill:#ffffff;"/>
   <text x="184.0" y="294.0" style="fill:black;font-family:Helvetica;font-size:18.7px;stroke:yellow;stroke-width:0.8;">0</text>
  </g>
  <g>
   <rect x="206.0" y="272.0" width="22.0" height="22.0" style="fill:#ffffff;"/>
   <text x="206.0" y="294.0" style="fill:black;font-family:Helvetica;font-size:18.7px;stroke:yellow;stroke-width:0.8;">0</text>
  </g>
  <text x="10.0" y="316.0" title="tryptophan" style="fill:black;font-family:Helvetica;font-size:18.7px;font-weight:bold;">tryptophan</text>
  <g>
   <rect x="140.0" y="294.0" width="22.0" height="22.0" style="fill:#ffffff;"/>
   <text x="140.0" y="316.0" style="fill:black;font-family:Helvetica;font-size:18.7px;stroke:yellow;stroke-width:0.8;">0</text>
  </g>
  <g>
   <rect x="162.0" y="294.0" width="22.0" height="22.0" style="fill:#000;"/>
   <text x="162.0" y="316.0" style="fill:black;font-family:Helvetica;font-size:18.7px;stroke:yellow;stroke-width:0.8;">1</text>
  </g>
  <g>
   <rect x="184.0" y="294.0" width="22.0" height="22.0" style="fill:#000;"/>
   <text x="184.0" y="316.0" style="fill:black;font-family:Helvetica;font-size:18.7px;stroke:yellow;stroke-width:0.8;">1</text>
  </g>
  <g>
   <rect x="206.0" y="294.0" width="22.0" height="22.0" style="fill:#000;"/>
   <text x="206.0" y="316.0" style="fill:black;font-family:Helvetica;font-size:18.7px;stroke:yellow;stroke-width:0.8;">1</text>
  </g>
  <text x="10.0" y="338.0" title="paclitaxel" style="fill:black;font-family:Helvetica;font-size:18.7px;font-weight:bold;">paclitaxel</text>
  <g>
   <rect x="140.0" y="316.0" width="22.0" height="22.0" style="fill:#ffffff;"/>
   <text x="140.0" y="338.0" style="fill:black;font-family:Helvetica;font-size:18.7px;stroke:yellow;stroke-width:0.8;">0</text>
  </g>
  <g>
   <rect x="162.0" y="316.0" width="22.0" height="22.0" style="fill:#ffffff;"/>
   <text x="162.0" y="338.0" style="fill:black;font-family:Helvetica;font-size:18.7px;stroke:yellow;stroke-width:0.8;">0</text>
  </g>
  <g>
   <rect x="184.0" y="316.0" width="22.0" height="22.0" style="fill:#ffffff;"/>
   <text x="184.0" y="338.0" style="fill:black;font-family:Helvetica;font-size:18.7px;stroke:yellow;stroke-width:0.8;">0</text>
  </g>
  <g>
   <rect x="206.0" y="316.0" width="22.0" height="22.0" style="fill:#ffffff;"/>
   <text x="206.0" y="338.0" style="fill:black;font-family:Helvetica;font-size:18.7px;stroke:yellow;stroke-width:0.8;">0</text>
  </g>
  <text x="10.0" y="360.0" title="diltiazem" style="fill:black;font-family:Helvetica;font-size:18.7px;font-weight:bold;">diltiazem</text>
  <g>
   <rect x="140.0" y="338.0" width="22.0" height="22.0" style="fill:#ffffff;"/>
   <text x="140.0" y="360.0" style="fill:black;font-family:Helvetica;font-size:18.7px;stroke:yellow;stroke-width:0.8;">0</text>
  </g>
  <g>
   <rect x="162.0" y="338.0" width="22.0" height="22.0" style="fill:#ffffff;"/>
   <text x="162.0" y="360.0" style="fill:black;font-family:Helvetica;font-size:18.7px;stroke:yellow;stroke-width:0.8;">0</text>
  </g>
  <g>
   <rect x="184.0" y="338.0" width="22.0" height="22.0" style="fill:#ffffff;"/>
   <text x="184.0" y="360.0" style="fill:black;font-family:Helvetica;font-size:18.7px;stroke:yellow;stroke-width:0.8;">0</text>
  </g>
  <g>
   <rect x="206.0" y="338.0" width="22.0" height="22.0" style="fill:#ffffff;"/>
   <text x="206.0" y="360.0" style="fill:black;font-family:Helvetica;font-size:18.7px;stroke:yellow;stroke-width:0.8;">0</text>
  </g>
  <text x="10.0" y="382.0" title="amikacin" style="fill:black;font-family:Helvetica;font-size:18.7px;font-weight:bold;">amikacin</text>
  <g>
   <rect x="140.0" y="360.0" width="22.0" height="22.0" style="fill:#ffffff;"/>
   <text x="140.0" y="382.0" style="fill:black;font-family:Helvetica;font-size:18.7px;stroke:yellow;stroke-width:0.8;">0</text>
  </g>
  <g>
   <rect x="162.0" y="360.0" width="22.0" height="22.0" style="fill:#ffffff;"/>
   <text x="162.0" y="382.0" style="fill:black;font-family:Helvetica;font-size:18.7px;stroke:yellow;stroke-width:0.8;">0</text>
  </g>
  <g>
   <rect x="184.0" y="360.0" width="22.0" height="22.0" style="fill:#ffffff;"/>
   <text x="184.0" y="382.0" style="fill:black;font-family:Helvetica;font-size:18.7px;stroke:yellow;stroke-width:0.8;">0</text>
  </g>
  <g>
   <rect x="206.0" y="360.0" width="22.0" height="22.0" style="fill:#ffffff;"/>
   <text x="206.0" y="382.0" style="fill:black;font-family:Helvetica;font-size:18.7px;stroke:yellow;stroke-width:0.8;">0</text>
  </g>
  <text x="10.0" y="404.0" title="ascorbic acid" style="fill:black;font-family:Helvetica;font-size:18.7px;font-weight:bold;">ascorbic acid</text>
  <g>
   <rect x="140.0" y="382.0" width="22.0" height="22.0" style="fill:#ffffff;"/>
   <text x="140.0" y="404.0" style="fill:black;font-family:Helvetica;font-size:18.7px;stroke:yellow;stroke-width:0.8;">0</text>
  </g>
  <g>
   <rect x="162.0" y="382.0" width="22.0" height="22.0" style="fill:#ffffff;"/>
   <text x="162.0" y="404.0" style="fill:black;font-family:Helvetica;font-size:18.7px;stroke:yellow;stroke-width:0.8;">0</text>
  </g>
  <g>
   <rect x="184.0" y="382.0" width="22.0" height="22.0" style="fill:#ffffff;"/>
   <text x="184.0" y="404.0" style="fill:black;font-family:Helvetica;font-size:18.7px;stroke:yellow;stroke-width:0.8;">0</text>
  </g>
  <g>
   <rect x="206.0" y="382.0" width="22.0" height="22.0" style="fill:#ffffff;"/>
   <text x="206.0" y="404.0" style="fill:black;font-family:Helvetica;font-size:18.7px;stroke:yellow;stroke-width:0.8;">0</text>
  </g>
  <text x="10.0" y="426.0" title="ampicillin" style="fill:black;font-family:Helvetica;font-size:18.7px;font-weight:bold;">ampicillin</text>
  <g>
   <rect x="140.0" y="404.0" width="22.0" height="22.0" style="fill:#ffffff;"/>
   <text x="140.0" y="426.0" style="fill:black;font-family:Helvetica;font-size:18.7px;stroke:yellow;stroke-width:0.8;">0</text>
  </g>
  <g>
   <rect x="162.0" y="404.0" width="22.0" height="22.0" style="fill:#ffffff;"/>
   <text x="162.0" y="426.0" style="fill:black;font-family:Helvetica;font-size:18.7px;stroke:yellow;stroke-width:0.8;">0</text>
  </g>
  <g>
   <rect x="184.0" y="404.0" width="22.0" height="22.0" style="fill:#ffffff;"/>
   <text x="184.0" y="426.0" style="fill:black;font-family:Helvetica;font-size:18.7px;stroke:yellow;stroke-width:0.8;">0</text>
  </g>
  <g>
   <rect x="206.0" y="404.0" width="22.0" height="22.0" style="fill:#ffffff;"/>
   <text x="206.0" y="426.0" style="fill:black;font-family:Helvetica;font-size:18.7px;stroke:yellow;stroke-width:0.8;">0</text>
  </g>
  <text x="10.0" y="448.0" title="ribavirin" style="fill:black;font-family:Helvetica;font-size:18.7px;font-weight:bold;">ribavirin</text>
  <g>
   <rect x="140.0" y="426.0" width="22.0" height="22.0" style="fill:#ffffff;"/>
   <text x="140.0" y="448.0" style="fill:black;font-family:Helvetica;font-size:18.7px;stroke:yellow;stroke-width:0.8;">0</text>
  </g>
  <g>
   <rect x="162.0" y="426.0" width="22.0" height="22.0" style="fill:#ffffff;"/>
   <text x="162.0" y="448.0" style="fill:black;font-family:Helvetica;font-size:18.7px;stroke:yellow;stroke-width:0.8;">0</text>
  </g>
  <g>
   <rect x="184.0" y="426.0" width="22.0" height="22.0" style="fill:#ffffff;"/>
   <text x="184.0" y="448.0" style="fill:black;font-family:Helvetica;font-size:18.7px;stroke:yellow;stroke-width:0.8;">0</text>
  </g>
  <g>
   <rect x="206.0" y="426.0" width="22.0" height="22.0" style="fill:#ffffff;"/>
   <text x="206.0" y="448.0" style="fill:black;font-family:Helvetica;font-size:18.7px;stroke:yellow;stroke-width:0.8;">0</text>
  </g>
  <text x="10.0" y="470.0" title="dimethyl sulfoxide" style="fill:black;font-family:Helvetica;font-size:18.7px;font-weight:bold;">dimethyl sulfox</text>
  <g>
   <rect x="140.0" y="448.0" width="22.0" height="22.0" style="fill:#ffffff;"/>
   <text x="140.0" y="470.0" style="fill:black;font-family:Helvetica;font-size:18.7px;stroke:yellow;stroke-width:0.8;">0</text>
  </g>
  <g>
   <rect x="162.0" y="448.0" width="22.0" height="22.0" style="fill:#ffffff;"/>
   <text x="162.0" y="470.0" style="fill:black;font-family:Helvetica;font-size:18.7px;stroke:yellow;stroke-width:0.8;">0</text>
  </g>
  <g>
   <rect x="184.0" y="448.0" width="22.0" height="22.0" style="fill:#ffffff;"/>
   <text x="184.0" y="470.0" style="fill:black;font-family:Helvetica;font-size:18.7px;stroke:yellow;stroke-width:0.8;">0</text>
  </g>
  <g>
   <rect x="206.0" y="448.0" width="22.0" height="22.0" style="fill:#ffffff;"/>
   <text x="206.0" y="470.0" style="fill:black;font-family:Helvetica;font-size:18.7px;stroke:yellow;stroke-width:0.8;">0</text>
  </g>
  <text x="10.0" y="492.0" title="levodopa" style="fill:black;font-family:Helvetica;font-size:18.7px;font-weight:bold;">levodopa</text>
  <g>
   <rect x="140.0" y="470.0" width="22.0" height="22.0" style="fill:#ffffff;"/>
   <text x="140.0" y="492.0" style="fill:black;font-family:Helvetica;font-size:18.7px;stroke:yellow;stroke-width:0.8;">0</text>
  </g>
  <g>
   <rect x="162.0" y="470.0" width="22.0" height="22.0" style="fill:#ffffff;"/>
   <text x="162.0" y="492.0" style="fill:black;font-family:Helvetica;font-size:18.7px;stroke:yellow;stroke-width:0.8;">0</text>
  </g>
  <g>
   <rect x="184.0" y="470.0" width="22.0" height="22.0" style="fill:#ffffff;"/>
   <text x="184.0" y="492.0" style="fill:black;font-family:Helvetica;font-size:18.7px;stroke:yellow;stroke-width:0.8;">0</text>
  </g>
  <g>
   <rect x="206.0" y="470.0" width="22.0" height="22.0" style="fill:#ffffff;"/>
   <text x="206.0" y="492.0" style="fill:black;font-family:Helvetica;font-size:18.7px;stroke:yellow;stroke-width:0.8;">0</text>
  </g>
  <text x="10.0" y="514.0" title="phenol" style="fill:black;font-family:Helvetica;font-size:18.7px;font-weight:bold;">phenol</text>
  <g>
   <rect x="140.0" y="492.0" width="22.0" height="22.0" style="fill:#ffffff;"/>
   <text x="140.0" y="514.0" style="fill:black;font-family:Helvetica;font-size:18.7px;stroke:yellow;stroke-width:0.8;">0</text>
  </g>
  <g>
   <rect x="162.0" y="492.0" width="22.0" height="22.0" style="fill:#ffffff;"/>
   <text x="162.0" y="514.0" style="fill:black;font-family:Helvetica;font-size:18.7px;stroke:yellow;stroke-width:0.8;">0</text>
  </g>
  <g>
   <rect x="184.0" y="492.0" width="22.0" height="22.0" style="fill:#ffffff;"/>
   <text x="184.0" y="514.0" style="fill:black;font-family:Helvetica;font-size:18.7px;stroke:yellow;stroke-width:0.8;">0</text>
  </g>
  <g>
   <rect x="206.0" y="492.0" width="22.0" height="22.0" style="fill:#ffffff;"/>
   <text x="206.0" y="514.0" style="fill:black;font-family:Helvetica;font-size:18.7px;stroke:yellow;stroke-width:0.8;">0</text>
  </g>
  <text x="10.0" y="536.0" title="alginic acid" style="fill:black;font-family:Helvetica;font-size:18.7px;font-weight:bold;">alginic acid</text>
  <g>
   <rect x="140.0" y="514.0" width="22.0" height="22.0" style="fill:#ffffff;"/>
   <text x="140.0" y="536.0" style="fill:black;font-family:Helvetica;font-size:18.7px;stroke:yellow;stroke-width:0.8;">0</text>
  </g>
  <g>
   <rect x="162.0" y="514.0" width="22.0" height="22.0" style="fill:#ffffff;"/>
   <text x="162.0" y="536.0" style="fill:black;font-family:Helvetica;font-size:18.7px;stroke:yellow;stroke-width:0.8;">0</text>
  </g>
  <g>
   <rect x="184.0" y="514.0" width="22.0" height="22.0" style="fill:#ffffff;"/>
   <text x="184.0" y="536.0" style="fill:black;font-family:Helvetica;font-size:18.7px;stroke:yellow;stroke-width:0.8;">0</text>
  </g>
  <g>
   <rect x="206.0" y="514.0" width="22.0" height="22.0" style="fill:#ffffff;"/>
   <text x="206.0" y="536.0" style="fill:black;font-family:Helvetica;font-size:18.7px;stroke:yellow;stroke-width:0.8;">0</text>
  </g>
 </g>
</svg>
