<?xml version="1.0" encoding="UTF-8"?>
<svg xmlns="http://www.w3.org/2000/svg">
 <g>
  <text x="10.0" y="162.0" title="sildenafil" style="fill:black;font-family:Helvetica;font-size:18.7px;font-weight:bold;">sildenafil</text>
  <text x="151.0" y="129.0" transform="matrix(6.123233995736766E-17,-1.0,1.0,6.123233995736766E-17,22.0,280.0)" title="Myrcene" style="fill:black;font-family:Helvetica;font-size:18.7px;font-weight:bold;">Myrcene</text>
  <g>
   <rect x="140.0" y="140.0" width="22.0" height="22.0" style="fill:#ffffff;"/>
   <text x="140.0" y="162.0" style="fill:black;font-family:Helvetica;font-size:18.7px;stroke:yellow;stroke-width:0.8;">0</text>
  </g>
  <text x="173.0" y="129.0" transform="matrix(6.123233995736766E-17,-1.0,1.0,6.123233995736766E-17,44.0,302.0)" title="Ocimene" style="fill:black;font-family:Helvetica;font-size:18.7px;font-weight:bold;">Ocimene</text>
  <g>
   <rect x="162.0" y="140.0" width="22.0" height="22.0" style="fill:#ffffff;"/>
   <text x="162.0" y="162.0" style="fill:black;font-family:Helvetica;font-size:18.7px;stroke:yellow;stroke-width:0.8;">0</text>
  </g>
  <text x="195.0" y="129.0" transform="matrix(6.123233995736766E-17,-1.0,1.0,6.123233995736766E-17,66.0,324.0)" title="Geraniol" style="fill:black;font-family:Helvetica;font-size:18.7px;font-weight:bold;">Geraniol</text>
  <g>
   <rect x="184.0" y="140.0" width="22.0" height="22.0" style="fill:#ffffff;"/>
   <text x="184.0" y="162.0" style="fill:black;font-family:Helvetica;font-size:18.7px;stroke:yellow;stroke-width:0.8;">0</text>
  </g>
  <text x="10.0" y="184.0" title="paclitaxel" style="fill:black;font-family:Helvetica;font-size:18.7px;font-weight:bold;">paclitaxel</text>
  <g>
   <rect x="140.0" y="162.0" width="22.0" height="22.0" style="fill:#ffffff;"/>
   <text x="140.0" y="184.0" style="fill:black;font-family:Helvetica;font-size:18.7px;stroke:yellow;stroke-width:0.8;">0</text>
  </g>
  <g>
   <rect x="162.0" y="162.0" width="22.0" height="22.0" style="fill:#ffffff;"/>
   <text x="162.0" y="184.0" style="fill:black;font-family:Helvetica;font-size:18.7px;stroke:yellow;stroke-width:0.8;">0</text>
  </g>
  <g>
   <rect x="184.0" y="162.0" width="22.0" height="22.0" style="fill:#ffffff;"/>
   <text x="184.0" y="184.0" style="fill:black;font-family:Helvetica;font-size:18.7px;stroke:yellow;stroke-width:0.8;">0</text>
  </g>
  <text x="10.0" y="206.0" title="amantadine" style="fill:black;font-family:Helvetica;font-size:18.7px;font-weight:bold;">amantadine</text>
  <g>
   <rect x="140.0" y="184.0" width="22.0" height="22.0" style="fill:#ffffff;"/>
   <text x="140.0" y="206.0" style="fill:black;font-family:Helvetica;font-size:18.7px;stroke:yellow;stroke-width:0.8;">0</text>
  </g>
  <g>
   <rect x="162.0" y="184.0" width="22.0" height="22.0" style="fill:#ffffff;"/>
   <text x="162.0" y="206.0" style="fill:black;font-family:Helvetica;font-size:18.7px;stroke:yellow;stroke-width:0.8;">0</text>
  </g>
  <g>
   <rect x="184.0" y="184.0" width="22.0" height="22.0" style="fill:#ffffff;"/>
   <text x="184.0" y="206.0" style="fill:black;font-family:Helvetica;font-size:18.7px;stroke:yellow;stroke-width:0.8;">0</text>
  </g>
  <text x="10.0" y="228.0" title="oseltamivir" style="fill:black;font-family:Helvetica;font-size:18.7px;font-weight:bold;">oseltamivir</text>
  <g>
   <rect x="140.0" y="206.0" width="22.0" height="22.0" style="fill:#ffffff;"/>
   <text x="140.0" y="228.0" style="fill:black;font-family:Helvetica;font-size:18.7px;stroke:yellow;stroke-width:0.8;">0</text>
  </g>
  <g>
   <rect x="162.0" y="206.0" width="22.0" height="22.0" style="fill:#ffffff;"/>
   <text x="162.0" y="228.0" style="fill:black;font-family:Helvetica;font-size:18.7px;stroke:yellow;stroke-width:0.8;">0</text>
  </g>
  <g>
   <rect x="184.0" y="206.0" width="22.0" height="22.0" style="fill:#ffffff;"/>
   <text x="184.0" y="228.0" style="fill:black;font-family:Helvetica;font-size:18.7px;stroke:yellow;stroke-width:0.8;">0</text>
  </g>
  <text x="10.0" y="250.0" title="diclofenac" style="fill:black;font-family:Helvetica;font-size:18.7px;font-weight:bold;">diclofenac</text>
  <g>
   <rect x="140.0" y="228.0" width="22.0" height="22.0" style="fill:#ffffff;"/>
   <text x="140.0" y="250.0" style="fill:black;font-family:Helvetica;font-size:18.7px;stroke:yellow;stroke-width:0.8;">0</text>
  </g>
  <g>
   <rect x="162.0" y="228.0" width="22.0" height="22.0" style="fill:#ffffff;"/>
   <text x="162.0" y="250.0" style="fill:black;font-family:Helvetica;font-size:18.7px;stroke:yellow;stroke-width:0.8;">0</text>
  </g>
  <g>
   <rect x="184.0" y="228.0" width="22.0" height="22.0" style="fill:#ffffff;"/>
   <text x="184.0" y="250.0" style="fill:black;font-family:Helvetica;font-size:18.7px;stroke:yellow;stroke-width:0.8;">0</text>
  </g>
  <text x="10.0" y="272.0" title="tryptophan" style="fill:black;font-family:Helvetica;font-size:18.7px;font-weight:bold;">tryptophan</text>
  <g>
   <rect x="140.0" y="250.0" width="22.0" height="22.0" style="fill:#000;"/>
   <text x="140.0" y="272.0" style="fill:black;font-family:Helvetica;font-size:18.7px;stroke:yellow;stroke-width:0.8;">1</text>
  </g>
  <g>
   <rect x="162.0" y="250.0" width="22.0" height="22.0" style="fill:#000;"/>
   <text x="162.0" y="272.0" style="fill:black;font-family:Helvetica;font-size:18.7px;stroke:yellow;stroke-width:0.8;">1</text>
  </g>
  <g>
   <rect x="184.0" y="250.0" width="22.0" height="22.0" style="fill:#000;"/>
   <text x="184.0" y="272.0" style="fill:black;font-family:Helvetica;font-size:18.7px;stroke:yellow;stroke-width:0.8;">1</text>
  </g>
  <text x="10.0" y="294.0" title="fluconazole" style="fill:black;font-family:Helvetica;font-size:18.7px;font-weight:bold;">fluconazole</text>
  <g>
   <rect x="140.0" y="272.0" width="22.0" height="22.0" style="fill:#ffffff;"/>
   <text x="140.0" y="294.0" style="fill:black;font-family:Helvetica;font-size:18.7px;stroke:yellow;stroke-width:0.8;">0</text>
  </g>
  <g>
   <rect x="162.0" y="272.0" width="22.0" height="22.0" style="fill:#ffffff;"/>
   <text x="162.0" y="294.0" style="fill:black;font-family:Helvetica;font-size:18.7px;stroke:yellow;stroke-width:0.8;">0</text>
  </g>
  <g>
   <rect x="184.0" y="272.0" width="22.0" height="22.0" style="fill:#ffffff;"/>
   <text x="184.0" y="294.0" style="fill:black;font-family:Helvetica;font-size:18.7px;stroke:yellow;stroke-width:0.8;">0</text>
  </g>
  <text x="10.0" y="316.0" title="voriconazole" style="fill:black;font-family:Helvetica;font-size:18.7px;font-weight:bold;">voriconazole</text>
  <g>
   <rect x="140.0" y="294.0" width="22.0" height="22.0" style="fill:#ffffff;"/>
   <text x="140.0" y="316.0" style="fill:black;font-family:Helvetica;font-size:18.7px;stroke:yellow;stroke-width:0.8;">0</text>
  </g>
  <g>
   <rect x="162.0" y="294.0" width="22.0" height="22.0" style="fill:#ffffff;"/>
   <text x="162.0" y="316.0" style="fill:black;font-family:Helvetica;font-size:18.7px;stroke:yellow;stroke-width:0.8;">0</text>
  </g>
  <g>
   <rect x="184.0" y="294.0" width="22.0" height="22.0" style="fill:#ffffff;"/>
   <text x="184.0" y="316.0" style="fill:black;font-family:Helvetica;font-size:18.7px;stroke:yellow;stroke-width:0.8;">0</text>
  </g>
  <text x="10.0" y="338.0" title="olmesartan" style="fill:black;font-family:Helvetica;font-size:18.7px;font-weight:bold;">olmesartan</text>
  <g>
   <rect x="140.0" y="316.0" width="22.0" height="22.0" style="fill:#ffffff;"/>
   <text x="140.0" y="338.0" style="fill:black;font-family:Helvetica;font-size:18.7px;stroke:yellow;stroke-width:0.8;">0</text>
  </g>
  <g>
   <rect x="162.0" y="316.0" width="22.0" height="22.0" style="fill:#ffffff;"/>
   <text x="162.0" y="338.0" style="fill:black;font-family:Helvetica;font-size:18.7px;stroke:yellow;stroke-width:0.8;">0</text>
  </g>
  <g>
   <rect x="184.0" y="316.0" width="22.0" height="22.0" style="fill:#ffffff;"/>
   <text x="184.0" y="338.0" style="fill:black;font-family:Helvetica;font-size:18.7px;stroke:yellow;stroke-width:0.8;">0</text>
  </g>
  <text x="10.0" y="360.0" title="amrinone" style="fill:black;font-family:Helvetica;font-size:18.7px;font-weight:bold;">amrinone</text>
  <g>
   <rect x="140.0" y="338.0" width="22.0" height="22.0" style="fill:#ffffff;"/>
   <text x="140.0" y="360.0" style="fill:black;font-family:Helvetica;font-size:18.7px;stroke:yellow;stroke-width:0.8;">0</text>
  </g>
  <g>
   <rect x="162.0" y="338.0" width="22.0" height="22.0" style="fill:#ffffff;"/>
   <text x="162.0" y="360.0" style="fill:black;font-family:Helvetica;font-size:18.7px;stroke:yellow;stroke-width:0.8;">0</text>
  </g>
  <g>
   <rect x="184.0" y="338.0" width="22.0" height="22.0" style="fill:#ffffff;"/>
   <text x="184.0" y="360.0" style="fill:black;font-family:Helvetica;font-size:18.7px;stroke:yellow;stroke-width:0.8;">0</text>
  </g>
  <text x="10.0" y="382.0" title="methotrexate" style="fill:black;font-family:Helvetica;font-size:18.7px;font-weight:bold;">methotrexate</text>
  <g>
   <rect x="140.0" y="360.0" width="22.0" height="22.0" style="fill:#ffffff;"/>
   <text x="140.0" y="382.0" style="fill:black;font-family:Helvetica;font-size:18.7px;stroke:yellow;stroke-width:0.8;">0</text>
  </g>
  <g>
   <rect x="162.0" y="360.0" width="22.0" height="22.0" style="fill:#ffffff;"/>
   <text x="162.0" y="382.0" style="fill:black;font-family:Helvetica;font-size:18.7px;stroke:yellow;stroke-width:0.8;">0</text>
  </g>
  <g>
   <rect x="184.0" y="360.0" width="22.0" height="22.0" style="fill:#ffffff;"/>
   <text x="184.0" y="382.0" style="fill:black;font-family:Helvetica;font-size:18.7px;stroke:yellow;stroke-width:0.8;">0</text>
  </g>
  <text x="10.0" y="404.0" title="clotrimazole" style="fill:black;font-family:Helvetica;font-size:18.7px;font-weight:bold;">clotrimazole</text>
  <g>
   <rect x="140.0" y="382.0" width="22.0" height="22.0" style="fill:#ffffff;"/>
   <text x="140.0" y="404.0" style="fill:black;font-family:Helvetica;font-size:18.7px;stroke:yellow;stroke-width:0.8;">0</text>
  </g>
  <g>
   <rect x="162.0" y="382.0" width="22.0" height="22.0" style="fill:#ffffff;"/>
   <text x="162.0" y="404.0" style="fill:black;font-family:Helvetica;font-size:18.7px;stroke:yellow;stroke-width:0.8;">0</text>
  </g>
  <g>
   <rect x="184.0" y="382.0" width="22.0" height="22.0" style="fill:#ffffff;"/>
   <text x="184.0" y="404.0" style="fill:black;font-family:Helvetica;font-size:18.7px;stroke:yellow;stroke-width:0.8;">0</text>
  </g>
  <text x="10.0" y="426.0" title="levodopa" style="fill:black;font-family:Helvetica;font-size:18.7px;font-weight:bold;">levodopa</text>
  <g>
   <rect x="140.0" y="404.0" width="22.0" height="22.0" style="fill:#ffffff;"/>
   <text x="140.0" y="426.0" style="fill:black;font-family:Helvetica;font-size:18.7px;stroke:yellow;stroke-width:0.8;">0</text>
  </g>
  <g>
   <rect x="162.0" y="404.0" width="22.0" height="22.0" style="fill:#ffffff;"/>
   <text x="162.0" y="426.0" style="fill:black;font-family:Helvetica;font-size:18.7px;stroke:yellow;stroke-width:0.8;">0</text>
  </g>
  <g>
   <rect x="184.0" y="404.0" width="22.0" height="22.0" style="fill:#ffffff;"/>
   <text x="184.0" y="426.0" style="fill:black;font-family:Helvetica;font-size:18.7px;stroke:yellow;stroke-width:0.8;">0</text>
  </g>
  <text x="10.0" y="448.0" title="sulfasalazine" style="fill:black;font-family:Helvetica;font-size:18.7px;font-weight:bold;">sulfasalazine</text>
  <g>
   <rect x="140.0" y="426.0" width="22.0" height="22.0" style="fill:#ffffff;"/>
   <text x="140.0" y="448.0" style="fill:black;font-family:Helvetica;font-size:18.7px;stroke:yellow;stroke-width:0.8;">0</text>
  </g>
  <g>
   <rect x="162.0" y="426.0" width="22.0" height="22.0" style="fill:#ffffff;"/>
   <text x="162.0" y="448.0" style="fill:black;font-family:Helvetica;font-size:18.7px;stroke:yellow;stroke-width:0.8;">0</text>
  </g>
  <g>
   <rect x="184.0" y="426.0" width="22.0" height="22.0" style="fill:#ffffff;"/>
   <text x="184.0" y="448.0" style="fill:black;font-family:Helvetica;font-size:18.7px;stroke:yellow;stroke-width:0.8;">0</text>
  </g>
  <text x="10.0" y="470.0" title="valsartan" style="fill:black;font-family:Helvetica;font-size:18.7px;font-weight:bold;">valsartan</text>
  <g>
   <rect x="140.0" y="448.0" width="22.0" height="22.0" style="fill:#ffffff;"/>
   <text x="140.0" y="470.0" style="fill:black;font-family:Helvetica;font-size:18.7px;stroke:yellow;stroke-width:0.8;">0</text>
  </g>
  <g>
   <rect x="162.0" y="448.0" width="22.0" height="22.0" style="fill:#ffffff;"/>
   <text x="162.0" y="470.0" style="fill:black;font-family:Helvetica;font-size:18.7px;stroke:yellow;stroke-width:0.8;">0</text>
  </g>
  <g>
   <rect x="184.0" y="448.0" width="22.0" height="22.0" style="fill:#ffffff;"/>
   <text x="184.0" y="470.0" style="fill:black;font-family:Helvetica;font-size:18.7px;stroke:yellow;stroke-width:0.8;">0</text>
  </g>
  <text x="10.0" y="492.0" title="ribavirin" style="fill:black;font-family:Helvetica;font-size:18.7px;font-weight:bold;">ribavirin</text>
  <g>
   <rect x="140.0" y="470.0" width="22.0" height="22.0" style="fill:#ffffff;"/>
   <text x="140.0" y="492.0" style="fill:black;font-family:Helvetica;font-size:18.7px;stroke:yellow;stroke-width:0.8;">0</text>
  </g>
  <g>
   <rect x="162.0" y="470.0" width="22.0" height="22.0" style="fill:#ffffff;"/>
   <text x="162.0" y="492.0" style="fill:black;font-family:Helvetica;font-size:18.7px;stroke:yellow;stroke-width:0.8;">0</text>
  </g>
  <g>
   <rect x="184.0" y="470.0" width="22.0" height="22.0" style="fill:#ffffff;"/>
   <text x="184.0" y="492.0" style="fill:black;font-family:Helvetica;font-size:18.7px;stroke:yellow;stroke-width:0.8;">0</text>
  </g>
  <text x="10.0" y="514.0" title="chlortetracycline" style="fill:black;font-family:Helvetica;font-size:18.7px;font-weight:bold;">chlortetracycli</text>
  <g>
   <rect x="140.0" y="492.0" width="22.0" height="22.0" style="fill:#ffffff;"/>
   <text x="140.0" y="514.0" style="fill:black;font-family:Helvetica;font-size:18.7px;stroke:yellow;stroke-width:0.8;">0</text>
  </g>
  <g>
   <rect x="162.0" y="492.0" width="22.0" height="22.0" style="fill:#ffffff;"/>
   <text x="162.0" y="514.0" style="fill:black;font-family:Helvetica;font-size:18.7px;stroke:yellow;stroke-width:0.8;">0</text>
  </g>
  <g>
   <rect x="184.0" y="492.0" width="22.0" height="22.0" style="fill:#ffffff;"/>
   <text x="184.0" y="514.0" style="fill:black;font-family:Helvetica;font-size:18.7px;stroke:yellow;stroke-width:0.8;">0</text>
  </g>
  <text x="10.0" y="536.0" title="telmisartan" style="fill:black;font-family:Helvetica;font-size:18.7px;font-weight:bold;">telmisartan</text>
  <g>
   <rect x="140.0" y="514.0" width="22.0" height="22.0" style="fill:#ffffff;"/>
   <text x="140.0" y="536.0" style="fill:black;font-family:Helvetica;font-size:18.7px;stroke:yellow;stroke-width:0.8;">0</text>
  </g>
  <g>
   <rect x="162.0" y="514.0" width="22.0" height="22.0" style="fill:#ffffff;"/>
   <text x="162.0" y="536.0" style="fill:black;font-family:Helvetica;font-size:18.7px;stroke:yellow;stroke-width:0.8;">0</text>
  </g>
  <g>
   <rect x="184.0" y="514.0" width="22.0" height="22.0" style="fill:#ffffff;"/>
   <text x="184.0" y="536.0" style="fill:black;font-family:Helvetica;font-size:18.7px;stroke:yellow;stroke-width:0.8;">0</text>
  </g>
  <text x="10.0" y="558.0" title="mycophenolic acid" style="fill:black;font-family:Helvetica;font-size:18.7px;font-weight:bold;">mycophenolic ac</text>
  <g>
   <rect x="140.0" y="536.0" width="22.0" height="22.0" style="fill:#ffffff;"/>
   <text x="140.0" y="558.0" style="fill:black;font-family:Helvetica;font-size:18.7px;stroke:yellow;stroke-width:0.8;">0</text>
  </g>
  <g>
   <rect x="162.0" y="536.0" width="22.0" height="22.0" style="fill:#ffffff;"/>
   <text x="162.0" y="558.0" style="fill:black;font-family:Helvetica;font-size:18.7px;stroke:yellow;stroke-width:0.8;">0</text>
  </g>
  <g>
   <rect x="184.0" y="536.0" width="22.0" height="22.0" style="fill:#ffffff;"/>
   <text x="184.0" y="558.0" style="fill:black;font-family:Helvetica;font-size:18.7px;stroke:yellow;stroke-width:0.8;">0</text>
  </g>
  <text x="10.0" y="580.0" title="simvastatin" style="fill:black;font-family:Helvetica;font-size:18.7px;font-weight:bold;">simvastatin</text>
  <g>
   <rect x="140.0" y="558.0" width="22.0" height="22.0" style="fill:#ffffff;"/>
   <text x="140.0" y="580.0" style="fill:black;font-family:Helvetica;font-size:18.7px;stroke:yellow;stroke-width:0.8;">0</text>
  </g>
  <g>
   <rect x="162.0" y="558.0" width="22.0" height="22.0" style="fill:#ffffff;"/>
   <text x="162.0" y="580.0" style="fill:black;font-family:Helvetica;font-size:18.7px;stroke:yellow;stroke-width:0.8;">0</text>
  </g>
  <g>
   <rect x="184.0" y="558.0" width="22.0" height="22.0" style="fill:#ffffff;"/>
   <text x="184.0" y="580.0" style="fill:black;font-family:Helvetica;font-size:18.7px;stroke:yellow;stroke-width:0.8;">0</text>
  </g>
  <text x="10.0" y="602.0" title="valproic acid" style="fill:black;font-family:Helvetica;font-size:18.7px;font-weight:bold;">valproic acid</text>
  <g>
   <rect x="140.0" y="580.0" width="22.0" height="22.0" style="fill:#ffffff;"/>
   <text x="140.0" y="602.0" style="fill:black;font-family:Helvetica;font-size:18.7px;stroke:yellow;stroke-width:0.8;">0</text>
  </g>
  <g>
   <rect x="162.0" y="580.0" width="22.0" height="22.0" style="fill:#ffffff;"/>
   <text x="162.0" y="602.0" style="fill:black;font-family:Helvetica;font-size:18.7px;stroke:yellow;stroke-width:0.8;">0</text>
  </g>
  <g>
   <rect x="184.0" y="580.0" width="22.0" height="22.0" style="fill:#ffffff;"/>
   <text x="184.0" y="602.0" style="fill:black;font-family:Helvetica;font-size:18.7px;stroke:yellow;stroke-width:0.8;">0</text>
  </g>
  <text x="10.0" y="624.0" title="piracetam" style="fill:black;font-family:Helvetica;font-size:18.7px;font-weight:bold;">piracetam</text>
  <g>
   <rect x="140.0" y="602.0" width="22.0" height="22.0" style="fill:#ffffff;"/>
   <text x="140.0" y="624.0" style="fill:black;font-family:Helvetica;font-size:18.7px;stroke:yellow;stroke-width:0.8;">0</text>
  </g>
  <g>
   <rect x="162.0" y="602.0" width="22.0" height="22.0" style="fill:#ffffff;"/>
   <text x="162.0" y="624.0" style="fill:black;font-family:Helvetica;font-size:18.7px;stroke:yellow;stroke-width:0.8;">0</text>
  </g>
  <g>
   <rect x="184.0" y="602.0" width="22.0" height="22.0" style="fill:#ffffff;"/>
   <text x="184.0" y="624.0" style="fill:black;font-family:Helvetica;font-size:18.7px;stroke:yellow;stroke-width:0.8;">0</text>
  </g>
  <text x="10.0" y="646.0" title="ketamine" style="fill:black;font-family:Helvetica;font-size:18.7px;font-weight:bold;">ketamine</text>
  <g>
   <rect x="140.0" y="624.0" width="22.0" height="22.0" style="fill:#ffffff;"/>
   <text x="140.0" y="646.0" style="fill:black;font-family:Helvetica;font-size:18.7px;stroke:yellow;stroke-width:0.8;">0</text>
  </g>
  <g>
   <rect x="162.0" y="624.0" width="22.0" height="22.0" style="fill:#ffffff;"/>
   <text x="162.0" y="646.0" style="fill:black;font-family:Helvetica;font-size:18.7px;stroke:yellow;stroke-width:0.8;">0</text>
  </g>
  <g>
   <rect x="184.0" y="624.0" width="22.0" height="22.0" style="fill:#ffffff;"/>
   <text x="184.0" y="646.0" style="fill:black;font-family:Helvetica;font-size:18.7px;stroke:yellow;stroke-width:0.8;">0</text>
  </g>
  <text x="10.0" y="668.0" title="phenol" style="fill:black;font-family:Helvetica;font-size:18.7px;font-weight:bold;">phenol</text>
  <g>
   <rect x="140.0" y="646.0" width="22.0" height="22.0" style="fill:#ffffff;"/>
   <text x="140.0" y="668.0" style="fill:black;font-family:Helvetica;font-size:18.7px;stroke:yellow;stroke-width:0.8;">0</text>
  </g>
  <g>
   <rect x="162.0" y="646.0" width="22.0" height="22.0" style="fill:#ffffff;"/>
   <text x="162.0" y="668.0" style="fill:black;font-family:Helvetica;font-size:18.7px;stroke:yellow;stroke-width:0.8;">0</text>
  </g>
  <g>
   <rect x="184.0" y="646.0" width="22.0" height="22.0" style="fill:#ffffff;"/>
   <text x="184.0" y="668.0" style="fill:black;font-family:Helvetica;font-size:18.7px;stroke:yellow;stroke-width:0.8;">0</text>
  </g>
  <text x="10.0" y="690.0" title="chloramphenicol" style="fill:black;font-family:Helvetica;font-size:18.7px;font-weight:bold;">chloramphenicol</text>
  <g>
   <rect x="140.0" y="668.0" width="22.0" height="22.0" style="fill:#ffffff;"/>
   <text x="140.0" y="690.0" style="fill:black;font-family:Helvetica;font-size:18.7px;stroke:yellow;stroke-width:0.8;">0</text>
  </g>
  <g>
   <rect x="162.0" y="668.0" width="22.0" height="22.0" style="fill:#ffffff;"/>
   <text x="162.0" y="690.0" style="fill:black;font-family:Helvetica;font-size:18.7px;stroke:yellow;stroke-width:0.8;">0</text>
  </g>
  <g>
   <rect x="184.0" y="668.0" width="22.0" height="22.0" style="fill:#ffffff;"/>
   <text x="184.0" y="690.0" style="fill:black;font-family:Helvetica;font-size:18.7px;stroke:yellow;stroke-width:0.8;">0</text>
  </g>
 </g>
</svg>
